if (_typeface_js && _typeface_js.loadFace) _typeface_js.loadFace({"glyphs":{"0":{"ha":694,"x_min":43,"x_max":653,"o":"m 353 960 q 568 823 483 960 q 653 476 653 686 q 568 125 653 260 q 347 -9 483 -9 q 126 123 210 -9 q 43 473 43 255 q 129 824 43 689 q 353 960 215 960 m 354 831 l 347 831 q 223 735 269 831 q 178 475 178 639 q 222 211 178 307 q 346 115 267 115 q 470 211 425 115 q 515 471 515 307 q 472 733 515 635 q 354 831 428 831 z "},"1":{"ha":694,"x_min":281,"x_max":416,"o":"m 281 947 l 416 947 l 416 0 l 281 0 l 281 947 z "},"2":{"ha":694,"x_min":47,"x_max":647,"o":"m 286 131 l 647 131 l 647 0 l 47 0 l 47 9 l 104 77 q 317 357 238 242 q 420 532 396 473 q 444 648 444 591 q 399 777 444 728 q 278 825 353 825 q 166 792 221 825 q 66 697 111 758 l 66 869 q 294 960 177 960 q 499 877 418 960 q 579 667 579 794 q 559 545 579 610 q 488 396 539 480 q 315 165 437 311 l 286 131 z "},"3":{"ha":694,"x_min":89,"x_max":589,"o":"m 250 551 l 258 551 q 394 588 347 551 q 440 694 440 625 q 395 797 440 758 q 277 836 350 836 q 113 790 203 836 l 113 920 q 293 961 195 961 q 499 892 424 961 q 575 705 575 824 q 546 584 575 633 q 453 500 517 535 q 534 447 509 478 q 574 370 560 415 q 589 275 589 326 q 506 70 589 151 q 297 -11 423 -11 q 89 41 189 -11 l 89 189 q 297 122 196 122 q 407 163 366 122 q 449 271 449 203 q 414 369 449 327 q 369 404 394 393 q 262 425 345 415 l 250 427 l 250 551 z "},"4":{"ha":694,"x_min":16,"x_max":654,"o":"m 493 960 l 549 960 l 549 428 l 654 428 l 654 313 l 549 313 l 549 0 l 416 0 l 416 313 l 16 313 l 16 371 l 493 960 m 416 428 l 416 703 l 197 428 l 416 428 z "},"5":{"ha":694,"x_min":69,"x_max":608,"o":"m 140 947 l 561 947 l 561 827 l 264 827 l 264 587 q 293 589 278 589 q 519 505 431 589 q 608 292 608 421 q 520 74 608 158 q 293 -9 433 -9 q 69 46 178 -9 l 69 186 q 269 119 172 119 q 413 169 355 119 q 471 292 471 219 q 408 417 471 367 q 250 468 345 468 q 140 454 170 468 l 140 947 z "},"6":{"ha":694,"x_min":62,"x_max":647,"o":"m 427 950 l 440 960 l 522 856 q 342 703 414 786 q 232 509 271 621 q 382 547 307 547 q 570 468 494 547 q 647 273 647 389 q 564 72 647 155 q 361 -11 480 -11 q 145 83 227 -11 q 62 329 62 177 q 105 556 62 443 q 227 767 147 669 q 427 950 307 866 m 203 368 q 197 297 197 336 q 244 165 197 217 q 363 114 290 114 q 470 158 428 114 q 513 269 513 202 q 468 380 513 338 q 349 422 422 422 q 280 411 311 422 q 203 368 249 399 z "},"7":{"ha":694,"x_min":68,"x_max":681,"o":"m 68 947 l 681 947 l 252 -11 l 131 40 l 478 818 l 68 818 l 68 947 z "},"8":{"ha":694,"x_min":45,"x_max":650,"o":"m 66 693 q 150 882 66 804 q 354 960 233 960 q 554 883 473 960 q 636 693 636 806 q 518 484 636 566 q 650 260 650 408 q 564 66 650 142 q 349 -11 479 -11 q 132 67 220 -11 q 45 261 45 146 q 179 484 45 406 q 93 581 119 532 q 66 693 66 629 m 501 689 q 459 791 501 751 q 351 831 416 831 q 243 791 286 831 q 201 690 201 752 q 246 589 201 631 q 353 547 290 547 q 458 589 414 547 q 501 689 501 631 m 513 254 l 513 268 q 466 374 513 333 q 346 415 420 415 q 228 374 273 415 q 182 267 182 332 q 229 159 182 201 q 350 118 275 118 q 467 156 421 118 q 513 254 513 194 z "},"9":{"ha":694,"x_min":50,"x_max":640,"o":"m 260 -11 l 176 87 q 360 249 281 154 q 465 443 439 343 q 314 403 401 403 q 128 484 205 403 q 50 677 50 564 q 133 878 50 795 q 335 960 216 960 q 555 863 469 960 q 640 614 640 766 q 533 266 640 441 q 260 -11 426 90 m 492 578 q 500 648 500 632 q 454 783 500 730 q 336 835 408 835 q 228 790 271 835 q 184 679 184 746 q 231 572 184 617 q 343 528 278 528 q 492 578 419 528 z "}," ":{"ha":386,"x_min":0,"x_max":0,"o":""},"!":{"ha":376,"x_min":103,"x_max":272,"o":"m 272 71 q 248 13 272 37 q 189 -11 224 -11 q 128 13 153 -11 q 103 71 103 36 q 127 132 103 107 q 187 157 152 157 q 248 132 224 157 q 272 71 272 107 m 174 296 l 163 330 q 130 515 149 371 q 111 761 111 660 q 189 960 111 960 q 265 766 265 960 q 235 437 265 606 l 216 334 l 205 294 q 187 273 199 273 q 174 296 180 273 z "},"\"":{"ha":492,"x_min":64,"x_max":428,"o":"m 172 642 l 97 642 l 64 832 l 64 994 l 203 994 l 203 832 l 172 642 m 396 642 l 322 642 l 289 832 l 289 994 l 428 994 l 428 832 l 396 642 z "},"#":{"ha":811,"x_min":3,"x_max":808,"o":"m 3 591 l 3 674 l 224 674 l 282 947 l 364 947 l 306 674 l 591 674 l 648 947 l 732 947 l 673 674 l 808 674 l 808 591 l 657 591 l 606 339 l 808 339 l 808 256 l 589 256 l 532 -15 l 449 -15 l 507 256 l 220 256 l 163 -15 l 79 -15 l 136 256 l 3 256 l 3 339 l 154 339 l 207 591 l 3 591 m 575 591 l 289 591 l 236 339 l 524 339 l 575 591 z "},"$":{"ha":753,"x_min":71,"x_max":697,"o":"m 446 960 l 446 909 q 653 828 581 889 l 653 672 q 446 787 568 759 l 446 513 q 633 406 569 476 q 697 244 697 336 q 634 81 697 153 q 561 22 603 45 q 446 -12 519 0 l 446 -163 l 332 -163 l 332 -12 q 71 85 216 -1 l 71 256 q 196 162 136 197 q 332 113 257 127 l 332 411 q 171 484 218 450 q 98 566 125 518 q 72 663 72 614 q 143 826 72 758 q 332 909 214 893 l 332 960 l 446 960 m 332 549 l 332 787 q 242 748 277 780 q 207 672 207 715 q 231 607 207 633 q 315 556 254 581 q 332 549 325 552 m 467 354 l 446 366 l 446 114 q 562 233 562 141 q 542 299 562 273 q 467 354 521 326 z "},"%":{"ha":939,"x_min":35,"x_max":904,"o":"m 726 961 l 830 961 l 207 -11 l 102 -11 l 726 961 m 692 412 q 842 350 779 412 q 904 201 904 288 q 842 54 904 115 q 692 -7 780 -7 q 542 54 604 -7 q 480 201 480 115 q 543 351 480 289 q 692 412 605 412 m 691 310 q 615 278 646 310 q 583 201 583 246 q 615 124 583 156 q 691 92 646 92 q 769 123 737 92 q 801 201 801 155 q 769 278 801 247 q 691 310 737 310 m 245 958 q 395 896 333 958 q 456 746 456 833 q 394 597 456 659 q 245 534 332 534 q 97 597 159 534 q 35 746 35 659 q 96 896 35 833 q 245 958 158 958 m 244 856 q 166 824 199 856 q 134 746 134 791 q 167 669 134 701 q 244 637 199 637 q 322 669 290 637 q 354 746 354 701 q 322 824 354 792 q 244 856 290 856 z "},"&":{"ha":868,"x_min":40,"x_max":861,"o":"m 688 0 l 578 129 q 529 87 564 115 l 528 86 q 409 18 479 46 q 275 -11 338 -11 q 109 53 177 -11 q 40 210 40 117 q 74 330 40 276 q 183 439 107 383 l 185 441 q 262 492 230 474 q 155 711 155 606 q 221 869 155 808 q 392 929 287 929 q 562 870 495 929 q 628 720 628 811 q 463 478 628 595 l 453 471 l 586 318 q 688 471 644 382 l 823 471 q 669 222 774 345 l 861 0 l 688 0 m 464 196 l 494 224 l 340 401 l 281 359 q 175 215 175 288 q 210 146 175 175 q 293 118 244 118 q 379 140 331 118 q 464 196 427 161 m 376 562 l 428 599 q 500 717 500 650 q 470 786 500 758 q 393 814 439 814 q 319 788 349 814 q 290 724 290 762 q 313 643 290 686 q 376 562 336 599 z "},"'":{"ha":261,"x_min":61,"x_max":200,"o":"m 168 642 l 92 642 l 61 828 l 61 994 l 200 994 l 200 828 l 168 642 z "},"(":{"ha":449,"x_min":89,"x_max":432,"o":"m 355 960 l 432 960 q 309 744 347 833 q 251 539 271 654 q 232 315 232 423 q 432 -318 232 -55 l 355 -318 l 335 -293 q 221 -142 258 -201 q 148 12 184 -83 q 89 319 89 162 q 148 628 89 479 q 355 960 207 777 z "},")":{"ha":449,"x_min":17,"x_max":359,"o":"m 93 -318 l 17 -318 q 142 -93 105 -185 q 198 111 180 0 q 216 323 216 222 q 195 552 216 441 q 131 762 174 663 q 17 960 89 861 l 93 960 l 114 935 q 227 785 190 844 q 300 631 264 726 q 359 321 359 481 q 306 26 359 168 q 239 -115 279 -45 q 93 -318 199 -184 z "},"*":{"ha":579,"x_min":24,"x_max":554,"o":"m 301 747 l 304 747 q 329 733 319 747 l 446 844 q 510 879 482 879 q 541 865 528 879 q 554 831 554 851 q 501 771 554 785 l 486 766 l 338 713 q 340 696 340 704 q 338 681 340 688 l 494 622 l 525 607 q 545 586 536 600 q 554 561 554 572 q 541 530 554 545 q 510 514 528 514 q 431 559 476 514 l 329 661 q 301 647 315 647 l 329 504 q 335 441 335 477 q 289 382 335 382 q 241 447 241 382 q 245 482 241 465 l 281 647 q 254 661 268 648 l 146 561 q 69 515 95 515 q 37 529 51 515 q 24 561 24 543 q 107 633 24 606 l 244 681 q 241 697 241 692 l 244 713 l 87 771 q 26 829 26 793 q 41 865 26 849 q 74 880 55 880 q 118 859 90 880 l 136 844 l 254 733 q 281 747 266 746 l 254 886 l 248 916 q 244 946 244 931 q 292 1008 244 1008 q 338 953 338 1008 q 329 889 338 933 l 301 747 z "},"+":{"ha":811,"x_min":77,"x_max":734,"o":"m 348 161 l 348 433 l 77 433 l 77 547 l 348 547 l 348 818 l 463 818 l 463 547 l 734 547 l 734 433 l 463 433 l 463 161 l 348 161 z "},",":{"ha":304,"x_min":53,"x_max":231,"o":"m 68 -164 l 68 -139 q 111 -80 98 -110 q 125 0 123 -51 q 53 89 53 21 q 78 152 53 125 q 136 179 102 179 q 204 142 178 179 q 231 49 231 106 q 187 -83 231 -26 q 68 -164 144 -140 z "},"-":{"ha":449,"x_min":56,"x_max":393,"o":"m 56 374 l 393 374 l 393 241 l 56 241 l 56 374 z "},".":{"ha":304,"x_min":69,"x_max":235,"o":"m 151 151 q 210 127 186 151 q 235 69 235 104 q 211 12 235 35 q 151 -11 186 -11 q 93 12 117 -11 q 69 69 69 35 q 93 127 69 104 q 151 151 117 151 z "},"/":{"ha":390,"x_min":3,"x_max":374,"o":"m 3 -12 l 276 960 l 374 960 l 102 -12 l 3 -12 z "},":":{"ha":304,"x_min":64,"x_max":240,"o":"m 146 154 q 205 130 180 154 q 229 71 229 105 q 205 13 229 37 q 146 -11 180 -11 q 88 13 113 -11 q 64 71 64 37 q 87 130 64 105 q 146 154 111 154 m 157 636 q 216 612 191 636 q 240 553 240 587 q 216 495 240 519 q 157 471 191 471 q 99 495 123 471 q 75 553 75 519 q 99 612 75 587 q 157 636 123 636 z "},";":{"ha":318,"x_min":69,"x_max":249,"o":"m 140 -7 l 142 0 q 69 89 69 21 q 94 152 69 125 q 153 179 119 179 q 220 142 193 179 q 248 49 248 104 q 204 -83 248 -26 q 85 -164 161 -140 l 85 -139 q 126 -82 114 -111 q 140 -7 138 -53 m 165 636 q 224 612 200 636 q 249 553 249 587 q 224 495 249 519 q 167 471 200 471 q 108 495 132 471 q 83 553 83 519 q 107 612 83 587 q 165 636 132 636 z "},"<":{"ha":811,"x_min":76,"x_max":734,"o":"m 76 435 l 76 549 l 734 827 l 734 705 l 212 491 l 734 275 l 734 153 l 76 435 z "},"=":{"ha":811,"x_min":77,"x_max":734,"o":"m 734 585 l 77 585 l 77 699 l 734 699 l 734 585 m 734 283 l 77 283 l 77 397 l 734 397 l 734 283 z "},">":{"ha":811,"x_min":76,"x_max":734,"o":"m 734 435 l 76 153 l 76 275 l 597 491 l 76 705 l 76 827 l 734 549 l 734 435 z "},"?":{"ha":463,"x_min":90,"x_max":403,"o":"m 90 812 l 179 961 q 346 900 289 957 q 403 758 403 842 q 381 643 403 704 q 282 465 359 583 q 193 271 193 328 q 197 243 193 262 q 131 293 151 264 q 111 372 111 323 q 127 457 111 420 q 204 590 143 494 q 262 743 262 682 q 236 810 262 785 q 167 835 210 835 q 90 812 134 835 m 297 71 q 273 13 297 36 q 212 -11 248 -11 q 155 12 178 -11 q 132 69 132 35 q 156 129 132 104 q 214 154 180 154 q 273 130 249 154 q 297 71 297 106 z "},"@":{"ha":1402,"x_min":75,"x_max":1360,"o":"m 686 734 q 890 610 817 734 l 914 715 l 1036 715 l 928 212 q 918 155 918 169 q 932 123 918 136 q 965 110 945 110 q 1078 166 1009 110 q 1186 309 1147 223 q 1226 486 1226 394 q 1088 792 1226 669 q 742 914 949 914 q 337 748 497 914 q 176 329 176 583 q 331 -54 176 82 q 764 -191 485 -191 q 1050 -135 928 -191 q 1145 -80 1096 -113 q 1238 12 1195 -46 l 1360 12 q 1225 -144 1320 -69 q 1020 -254 1131 -219 q 761 -289 908 -289 q 258 -127 441 -289 q 75 316 75 35 q 165 679 75 511 q 405 930 256 848 q 749 1013 553 1013 q 1165 863 1001 1013 q 1329 482 1329 713 q 1271 249 1329 362 q 1117 67 1213 136 q 920 -1 1021 -1 q 822 23 851 -1 q 787 111 793 48 q 688 29 743 58 q 581 0 634 0 q 405 87 475 0 q 335 302 335 174 q 385 510 335 409 q 517 673 435 611 q 686 734 600 734 m 460 292 q 501 153 460 208 q 606 98 543 98 q 775 203 700 98 q 851 440 851 309 q 808 582 851 528 q 694 636 765 636 q 531 531 603 636 q 460 292 460 425 z "},"A":{"ha":926,"x_min":0,"x_max":926,"o":"m 407 953 l 503 953 l 926 0 l 787 0 l 661 281 l 258 281 l 139 0 l 0 0 l 407 953 m 606 401 l 453 745 l 311 401 l 606 401 z "},"B":{"ha":782,"x_min":104,"x_max":753,"o":"m 425 0 l 104 0 l 104 947 l 353 947 q 536 916 470 947 q 636 829 602 884 q 671 701 671 774 q 526 501 671 562 q 691 416 630 481 q 753 258 753 350 q 715 129 753 186 q 606 36 678 72 q 425 0 534 0 m 357 827 l 240 827 l 240 542 l 330 542 q 485 583 439 542 q 530 690 530 625 q 357 827 530 827 m 367 421 l 240 421 l 240 121 l 374 121 q 525 138 485 121 q 588 192 564 155 q 612 271 612 229 q 587 350 612 314 q 515 404 562 386 q 367 421 468 421 z "},"C":{"ha":983,"x_min":68,"x_max":921,"o":"m 921 220 l 921 71 q 576 -11 772 -11 q 307 53 418 -11 q 132 229 197 117 q 68 471 68 340 q 215 819 68 677 q 579 960 363 960 q 911 882 728 960 l 911 736 q 586 831 745 831 q 316 728 423 831 q 208 471 208 625 q 314 214 208 315 q 585 114 420 114 q 921 220 757 114 z "},"D":{"ha":1042,"x_min":106,"x_max":977,"o":"m 106 1 l 106 947 l 425 947 q 731 889 618 947 q 910 719 844 831 q 977 473 977 606 q 940 292 977 378 q 836 139 903 205 q 675 37 766 71 q 576 8 621 16 q 406 1 532 1 l 106 1 m 411 827 l 241 827 l 241 122 l 415 122 q 573 136 517 122 q 667 171 629 150 q 736 224 705 193 q 836 481 836 326 q 733 730 836 633 q 646 789 695 766 q 553 819 597 812 q 411 827 509 827 z "},"E":{"ha":694,"x_min":104,"x_max":654,"o":"m 104 947 l 642 947 l 642 827 l 240 827 l 240 538 l 628 538 l 628 416 l 240 416 l 240 122 l 654 122 l 654 1 l 104 1 l 104 947 z "},"F":{"ha":652,"x_min":106,"x_max":611,"o":"m 106 947 l 611 947 l 611 827 l 241 827 l 241 562 l 611 562 l 611 441 l 241 441 l 241 0 l 106 0 l 106 947 z "},"G":{"ha":1028,"x_min":71,"x_max":935,"o":"m 616 467 l 935 467 l 935 65 q 587 -11 760 -11 q 211 126 352 -11 q 71 465 71 264 q 216 819 71 677 q 582 960 362 960 q 734 942 662 960 q 916 879 806 925 l 916 741 q 579 839 746 839 q 317 733 424 839 q 211 473 211 627 q 317 210 211 312 q 591 107 424 107 q 786 144 673 107 l 799 149 l 799 346 l 616 346 l 616 467 z "},"H":{"ha":1013,"x_min":104,"x_max":908,"o":"m 772 947 l 908 947 l 908 0 l 772 0 l 772 412 l 240 412 l 240 0 l 104 0 l 104 947 l 240 947 l 240 538 l 772 538 l 772 947 z "},"I":{"ha":347,"x_min":106,"x_max":241,"o":"m 106 947 l 241 947 l 241 0 l 106 0 l 106 947 z "},"J":{"ha":347,"x_min":-85,"x_max":241,"o":"m 106 947 l 241 947 l 241 12 q 215 -181 241 -119 q 128 -282 188 -244 q -16 -319 68 -319 q -60 -315 -28 -319 l -85 -189 l -50 -189 q 39 -175 8 -189 q 88 -125 70 -161 q 106 28 106 -89 l 106 947 z "},"K":{"ha":911,"x_min":106,"x_max":911,"o":"m 640 947 l 810 947 l 399 498 l 911 0 l 725 0 l 241 468 l 241 0 l 106 0 l 106 947 l 241 947 l 241 514 l 640 947 z "},"L":{"ha":681,"x_min":104,"x_max":667,"o":"m 104 947 l 240 947 l 240 123 l 667 123 l 667 0 l 104 0 l 104 947 z "},"M":{"ha":1084,"x_min":102,"x_max":985,"o":"m 859 947 l 985 947 l 985 0 l 848 0 l 848 737 l 557 371 l 532 371 l 237 737 l 237 0 l 102 0 l 102 947 l 229 947 l 545 558 l 859 947 z "},"N":{"ha":1084,"x_min":109,"x_max":986,"o":"m 857 947 l 986 947 l 986 0 l 869 0 l 236 729 l 236 0 l 109 0 l 109 947 l 218 947 l 857 212 l 857 947 z "},"O":{"ha":1143,"x_min":62,"x_max":1082,"o":"m 570 961 q 936 822 789 961 q 1082 473 1082 683 q 934 126 1082 264 q 562 -11 787 -11 q 205 126 348 -11 q 62 471 62 264 q 206 822 62 683 q 570 961 350 961 m 575 832 q 308 730 412 832 q 203 471 203 629 q 308 216 203 317 q 571 114 413 114 q 836 218 730 114 q 942 476 942 321 q 836 729 942 627 q 575 832 730 832 z "},"P":{"ha":708,"x_min":97,"x_max":694,"o":"m 97 0 l 97 949 l 397 949 q 614 876 533 949 q 694 679 694 802 q 653 532 694 596 q 540 440 612 469 q 334 411 468 411 l 233 411 l 233 0 l 97 0 m 374 828 l 233 828 l 233 532 l 382 532 q 509 571 465 532 q 554 682 554 610 q 374 828 554 828 z "},"Q":{"ha":1143,"x_min":61,"x_max":1082,"o":"m 1060 -60 l 924 -192 q 790 -169 860 -189 q 649 -116 721 -150 q 458 0 578 -82 q 173 164 286 31 q 61 471 61 297 q 205 822 61 683 q 571 961 350 961 q 936 823 791 961 q 1082 476 1082 685 q 972 168 1082 300 q 688 0 862 35 l 724 -14 q 965 -78 891 -78 q 1060 -60 1006 -78 m 571 832 q 307 729 411 832 q 202 469 202 626 q 307 215 202 317 q 571 114 412 114 q 835 218 728 114 q 942 473 942 321 q 837 730 942 629 q 571 832 732 832 z "},"R":{"ha":839,"x_min":109,"x_max":839,"o":"m 109 0 l 109 947 l 346 947 q 574 876 490 947 q 659 684 659 805 q 617 541 659 601 q 498 450 576 480 q 587 369 544 420 q 709 189 631 317 q 789 68 759 109 l 839 0 l 677 0 l 636 62 q 628 74 634 66 l 602 111 l 559 180 l 514 254 q 437 347 472 313 q 374 397 402 382 q 279 412 346 412 l 244 412 l 244 0 l 109 0 m 285 832 l 244 832 l 244 533 l 296 533 q 437 551 399 533 q 497 604 475 568 q 518 685 518 640 q 494 766 518 730 q 428 817 471 802 q 285 832 385 832 z "},"S":{"ha":636,"x_min":57,"x_max":591,"o":"m 339 397 l 236 460 q 98 576 139 519 q 57 708 57 633 q 135 890 57 820 q 336 960 212 960 q 554 893 455 960 l 554 739 q 334 838 452 838 q 224 807 267 838 q 182 728 182 776 q 213 648 182 685 q 314 570 244 610 l 418 509 q 591 245 591 406 q 515 60 591 132 q 317 -11 439 -11 q 61 75 176 -11 l 61 248 q 315 109 171 109 q 421 144 379 109 q 464 233 464 180 q 339 397 464 320 z "},"T":{"ha":839,"x_min":24,"x_max":815,"o":"m 24 949 l 815 949 l 815 828 l 485 828 l 485 0 l 349 0 l 349 828 l 24 828 l 24 949 z "},"U":{"ha":983,"x_min":85,"x_max":900,"o":"m 764 947 l 900 947 l 900 410 q 884 245 900 300 q 845 152 868 189 q 787 86 821 115 q 493 -11 675 -11 q 196 85 308 -11 q 139 152 162 115 q 100 243 115 189 q 85 411 85 296 l 85 947 l 221 947 l 221 410 q 252 224 221 276 q 345 140 282 172 q 492 109 407 109 q 688 172 612 109 q 746 252 728 205 q 764 410 764 298 l 764 947 z "},"V":{"ha":839,"x_min":0,"x_max":839,"o":"m 704 947 l 839 947 l 439 -4 l 408 -4 l 0 947 l 136 947 l 421 282 l 704 947 z "},"W":{"ha":1447,"x_min":0,"x_max":1446,"o":"m 1311 947 l 1446 947 l 1063 -4 l 1034 -4 l 724 766 l 411 -4 l 382 -4 l 0 947 l 136 947 l 397 294 l 660 947 l 789 947 l 1053 294 l 1311 947 z "},"X":{"ha":983,"x_min":3,"x_max":981,"o":"m 790 947 l 954 947 l 576 490 l 981 0 l 817 0 l 494 392 l 168 0 l 3 0 l 411 490 l 32 947 l 197 947 l 494 586 l 790 947 z "},"Y":{"ha":839,"x_min":0,"x_max":839,"o":"m 675 947 l 839 947 l 489 501 l 489 0 l 350 0 l 350 501 l 0 947 l 164 947 l 418 621 l 675 947 z "},"Z":{"ha":897,"x_min":17,"x_max":872,"o":"m 56 949 l 872 949 l 267 121 l 872 121 l 872 0 l 17 0 l 624 828 l 56 828 l 56 949 z "},"[":{"ha":463,"x_min":119,"x_max":443,"o":"m 119 947 l 443 947 l 443 836 l 253 836 l 253 -195 l 443 -195 l 443 -306 l 119 -306 l 119 947 z "},"\\":{"ha":390,"x_min":16,"x_max":387,"o":"m 289 -12 l 16 960 l 115 960 l 387 -12 l 289 -12 z "},"]":{"ha":463,"x_min":21,"x_max":343,"o":"m 343 -306 l 21 -306 l 21 -195 l 210 -195 l 210 836 l 21 836 l 21 947 l 343 947 l 343 -306 z "},"^":{"ha":652,"x_min":36,"x_max":615,"o":"m 325 810 l 161 404 l 36 404 l 277 947 l 375 947 l 615 404 l 492 404 l 325 810 z "},"_":{"ha":766,"x_min":-20,"x_max":787,"o":"m 787 -275 l -20 -275 l -20 -186 l 787 -186 l 787 -275 z "},"`":{"ha":463,"x_min":83,"x_max":315,"o":"m 222 962 l 315 759 l 239 759 l 83 962 l 222 962 z "},"a":{"ha":593,"x_min":37,"x_max":571,"o":"m 479 375 l 479 110 q 501 78 479 78 q 571 111 524 78 l 571 36 q 504 -1 529 9 q 450 -11 478 -11 q 357 52 371 -11 q 189 -9 278 -9 q 81 34 124 -9 q 37 142 37 77 q 80 247 37 201 q 200 321 122 294 l 358 375 l 358 408 q 245 521 358 521 q 49 416 144 521 l 49 551 q 256 636 121 636 q 418 583 357 636 q 454 538 438 566 q 475 482 471 510 q 479 375 479 454 m 358 123 l 358 309 l 275 277 q 186 226 212 252 q 160 163 160 201 q 185 100 160 124 q 249 75 210 75 q 358 123 308 75 z "},"b":{"ha":694,"x_min":82,"x_max":646,"o":"m 82 947 l 205 947 l 205 579 q 376 637 286 637 q 570 548 495 637 q 646 318 646 458 q 556 78 646 168 q 315 -11 466 -11 q 188 2 255 -11 q 82 35 121 15 l 82 947 m 205 461 l 205 123 q 335 104 269 104 q 469 163 417 104 q 521 313 521 221 q 472 464 521 406 q 346 522 424 522 q 205 461 277 522 z "},"c":{"ha":608,"x_min":53,"x_max":555,"o":"m 555 146 l 555 24 q 374 -11 463 -11 q 140 76 227 -11 q 53 309 53 163 q 138 546 53 456 q 361 636 222 636 q 447 627 409 636 q 542 593 486 618 l 542 461 q 368 521 448 521 q 231 462 285 521 q 178 313 178 404 q 236 161 178 217 q 392 104 294 104 q 555 146 463 104 z "},"d":{"ha":708,"x_min":61,"x_max":628,"o":"m 504 947 l 628 947 l 628 0 l 364 0 q 143 87 226 0 q 61 322 61 175 q 148 549 61 460 q 368 637 234 637 q 504 611 431 637 l 504 947 m 504 106 l 504 501 q 387 530 446 530 q 240 470 295 530 q 186 307 186 410 q 233 159 186 211 q 294 117 262 127 q 408 106 326 106 l 504 106 z "},"e":{"ha":665,"x_min":57,"x_max":619,"o":"m 619 301 l 180 301 q 240 159 185 212 q 383 106 296 106 q 608 182 505 106 l 608 61 q 495 7 551 23 q 364 -9 439 -9 q 197 33 261 -9 q 95 148 134 76 q 57 315 57 220 q 138 547 57 458 q 347 636 218 636 q 545 549 471 636 q 619 317 619 463 l 619 301 m 183 375 l 497 375 q 453 489 492 449 q 347 529 414 529 q 238 489 281 529 q 183 375 196 449 z "},"f":{"ha":347,"x_min":12,"x_max":411,"o":"m 102 624 l 102 661 q 166 886 102 812 q 319 960 230 960 q 411 947 358 960 l 411 827 q 354 838 381 838 q 253 799 281 838 q 225 661 225 760 l 225 624 l 336 624 l 336 513 l 225 513 l 225 0 l 102 0 l 102 513 l 12 513 l 12 624 l 102 624 z "},"g":{"ha":593,"x_min":0,"x_max":585,"o":"m 56 408 q 129 566 56 508 q 328 624 201 624 l 585 624 l 585 528 l 458 528 q 509 460 495 490 q 524 390 524 429 q 496 294 524 341 q 424 222 468 247 q 281 182 380 197 q 211 134 211 172 q 237 98 211 112 q 332 69 263 84 q 479 30 446 44 q 538 -11 512 16 q 583 -123 583 -56 q 504 -265 583 -212 q 293 -318 425 -318 q 80 -265 159 -318 q 0 -122 0 -212 q 157 41 0 5 q 94 121 94 81 q 121 175 94 151 q 193 211 148 199 q 56 408 56 272 m 288 517 q 202 483 237 517 q 167 401 167 449 q 201 322 167 353 q 289 290 236 290 q 376 322 341 290 q 411 403 411 355 q 376 484 411 452 q 288 517 340 517 m 258 -29 q 156 -56 196 -29 q 117 -123 117 -82 q 290 -220 117 -220 q 417 -196 372 -220 q 463 -127 463 -172 q 406 -57 463 -84 q 258 -29 349 -29 z "},"h":{"ha":694,"x_min":85,"x_max":610,"o":"m 85 947 l 208 947 l 208 542 q 400 636 286 636 q 512 605 463 636 q 586 519 562 574 q 610 355 610 464 l 610 0 l 486 0 l 486 386 q 453 496 486 454 q 364 538 419 538 q 288 517 323 538 q 208 447 252 496 l 208 0 l 85 0 l 85 947 z "},"i":{"ha":304,"x_min":79,"x_max":225,"o":"m 151 886 q 203 865 182 886 q 225 814 225 844 q 203 762 225 784 q 151 741 182 741 q 101 763 123 741 q 79 814 79 785 q 101 864 79 842 q 151 886 123 886 m 90 624 l 214 624 l 214 0 l 90 0 l 90 624 z "},"j":{"ha":304,"x_min":-7,"x_max":218,"o":"m 144 886 q 197 865 175 886 q 218 814 218 844 q 198 762 218 783 q 146 741 177 741 q 94 762 117 741 q 72 814 72 784 q 94 864 72 842 q 144 886 116 886 m 86 624 l 210 624 l 210 -89 q 85 -318 210 -251 l -7 -228 q 61 -176 36 -213 q 86 -89 86 -138 l 86 624 z "},"k":{"ha":665,"x_min":87,"x_max":694,"o":"m 493 624 l 640 624 l 374 318 l 694 0 l 529 0 l 216 318 l 493 624 m 87 947 l 211 947 l 211 0 l 87 0 l 87 947 z "},"l":{"ha":304,"x_min":90,"x_max":214,"o":"m 90 947 l 214 947 l 214 0 l 90 0 l 90 947 z "},"m":{"ha":1071,"x_min":82,"x_max":989,"o":"m 599 453 l 599 0 l 475 0 l 475 347 q 447 492 475 451 q 350 533 419 533 q 279 515 311 533 q 205 453 247 498 l 205 0 l 82 0 l 82 624 l 205 624 l 205 542 q 390 636 300 636 q 574 524 509 636 q 781 637 673 637 q 930 571 871 637 q 989 368 989 505 l 989 0 l 865 0 l 865 370 q 833 489 865 448 q 742 530 802 530 q 599 453 665 530 z "},"n":{"ha":694,"x_min":85,"x_max":610,"o":"m 211 624 l 211 545 q 399 636 294 636 q 507 606 457 636 q 584 523 557 576 q 610 357 610 471 l 610 0 l 486 0 l 486 355 q 457 492 486 451 q 359 533 428 533 q 211 446 272 533 l 211 0 l 85 0 l 85 624 l 211 624 z "},"o":{"ha":766,"x_min":52,"x_max":717,"o":"m 386 625 q 623 533 528 625 q 717 302 717 441 q 621 78 717 168 q 380 -11 526 -11 q 146 80 240 -11 q 52 306 52 170 q 147 534 52 443 q 386 625 242 625 m 379 514 q 233 456 290 514 q 176 307 176 397 q 235 161 176 218 q 385 104 293 104 q 533 162 475 104 q 591 309 591 219 q 531 456 591 397 q 379 514 471 514 z "},"p":{"ha":694,"x_min":79,"x_max":647,"o":"m 79 -318 l 79 624 l 296 624 q 554 541 462 624 q 647 310 647 458 q 560 79 647 170 q 338 -11 473 -11 q 205 16 278 -11 l 205 -318 l 79 -318 m 293 509 l 205 509 l 205 125 q 325 96 262 96 q 467 156 412 96 q 522 311 522 216 q 496 419 522 372 q 425 487 470 466 q 293 509 380 509 z "},"q":{"ha":694,"x_min":49,"x_max":615,"o":"m 382 624 l 615 624 l 615 -318 l 492 -318 l 492 11 q 355 -11 411 -11 q 136 79 222 -11 q 49 306 49 168 q 139 538 49 452 q 382 624 229 624 m 492 118 l 492 509 l 414 509 q 307 502 334 509 q 260 482 280 494 q 224 451 241 469 q 174 309 174 393 q 231 152 174 213 q 379 92 288 92 q 414 94 400 92 q 473 113 427 97 l 483 115 l 492 118 z "},"r":{"ha":550,"x_min":96,"x_max":551,"o":"m 220 624 l 220 481 l 227 492 q 406 636 316 636 q 551 566 475 636 l 486 457 q 367 518 422 518 q 263 461 307 518 q 220 326 220 404 l 220 0 l 96 0 l 96 624 l 220 624 z "},"s":{"ha":534,"x_min":57,"x_max":479,"o":"m 57 45 l 57 178 q 164 118 109 141 q 256 96 218 96 q 322 115 294 96 q 350 160 350 134 q 332 205 350 187 q 254 257 314 223 q 98 371 135 323 q 61 473 61 418 q 117 591 61 545 q 261 636 173 636 q 449 585 353 636 l 449 463 q 269 529 339 529 q 211 514 233 529 q 189 473 189 498 q 209 432 189 452 q 279 385 229 412 l 323 359 q 479 164 479 271 q 419 38 479 87 q 265 -11 359 -11 q 166 1 210 -11 q 57 45 123 13 z "},"t":{"ha":463,"x_min":0,"x_max":461,"o":"m 0 525 l 232 753 l 232 624 l 429 624 l 429 513 l 232 513 l 232 207 q 321 100 232 100 q 461 144 387 100 l 461 29 q 306 -11 390 -11 q 165 39 221 -11 q 136 72 147 54 q 116 121 124 91 q 109 236 109 151 l 109 513 l 0 513 l 0 525 z "},"u":{"ha":694,"x_min":85,"x_max":608,"o":"m 485 0 l 485 79 q 395 13 446 37 q 294 -11 345 -11 q 185 19 235 -11 q 110 99 136 48 q 85 267 85 149 l 85 624 l 208 624 l 208 268 q 236 131 208 170 q 335 92 264 92 q 485 178 423 92 l 485 624 l 608 624 l 608 0 l 485 0 z "},"v":{"ha":608,"x_min":4,"x_max":603,"o":"m 469 624 l 603 624 l 328 -11 l 286 -11 l 4 624 l 139 624 l 307 240 l 469 624 z "},"w":{"ha":999,"x_min":0,"x_max":999,"o":"m 867 624 l 999 624 l 724 -11 l 685 -11 l 500 424 l 318 -11 l 278 -11 l 0 624 l 132 624 l 296 245 l 454 624 l 546 624 l 704 245 l 867 624 z "},"x":{"ha":694,"x_min":0,"x_max":694,"o":"m 518 624 l 676 624 l 419 317 l 694 0 l 536 0 l 340 224 l 155 0 l 0 0 l 262 317 l 0 624 l 155 624 l 340 410 l 518 624 z "},"y":{"ha":608,"x_min":0,"x_max":608,"o":"m 469 624 l 608 624 l 167 -318 l 29 -318 l 241 134 l 0 624 l 140 624 l 309 272 l 469 624 z "},"z":{"ha":579,"x_min":16,"x_max":562,"o":"m 29 624 l 562 624 l 232 115 l 562 115 l 562 0 l 16 0 l 343 509 l 29 509 l 29 624 z "},"{":{"ha":463,"x_min":39,"x_max":432,"o":"m 39 304 l 39 415 q 121 439 87 415 q 166 510 155 463 q 179 677 178 557 q 189 868 180 821 q 228 952 197 914 q 290 998 254 985 q 393 1011 326 1011 l 432 1011 l 432 905 l 410 905 q 316 879 338 905 q 294 765 294 852 l 294 665 q 281 518 294 575 q 240 424 269 460 q 151 359 212 388 q 263 259 231 326 q 294 53 294 192 l 294 -45 q 316 -158 294 -132 q 410 -184 338 -184 l 432 -184 l 432 -290 l 393 -290 q 288 -277 324 -290 q 226 -230 252 -264 q 189 -145 197 -191 q 179 41 180 -99 q 166 210 178 163 q 118 281 153 257 q 39 304 83 304 z "},"|":{"ha":361,"x_min":127,"x_max":234,"o":"m 127 -320 l 127 947 l 234 947 l 234 -320 l 127 -320 z "},"}":{"ha":463,"x_min":32,"x_max":424,"o":"m 32 1011 l 69 1011 q 174 998 138 1011 q 236 951 211 985 q 274 865 266 911 q 285 677 283 819 q 296 511 285 558 q 341 439 308 463 q 424 415 375 415 l 424 304 q 344 280 380 304 q 296 209 308 256 q 283 41 283 161 q 274 -146 282 -100 q 236 -231 266 -193 q 174 -278 210 -265 q 69 -290 139 -290 l 32 -290 l 32 -184 l 53 -184 q 148 -158 125 -184 q 170 -45 170 -132 l 170 53 q 201 259 170 191 q 311 359 232 326 q 227 418 254 387 q 184 509 199 450 q 170 665 170 568 l 170 765 q 147 879 170 852 q 53 905 125 905 l 32 905 l 32 1011 z "},"~":{"ha":810,"x_min":58,"x_max":753,"o":"m 236 454 q 151 435 189 454 q 58 363 113 416 l 58 501 q 248 583 132 583 q 433 536 326 583 l 488 513 q 578 493 530 493 q 753 585 667 493 l 753 441 q 566 364 670 364 q 399 406 494 364 l 357 424 q 236 454 286 454 z "},"Ä":{"ha":926,"x_min":0,"x_max":926,"o":"m 407 953 l 503 953 l 926 0 l 787 0 l 661 281 l 258 281 l 139 0 l 0 0 l 407 953 m 606 401 l 453 745 l 311 401 l 606 401 m 332 1157 q 378 1138 359 1157 q 397 1092 397 1119 q 379 1046 397 1065 q 334 1027 361 1027 q 288 1047 307 1027 q 269 1093 269 1066 q 288 1138 269 1120 q 332 1157 307 1157 m 593 1157 q 639 1138 620 1157 q 659 1092 659 1119 q 640 1046 659 1065 q 595 1027 622 1027 q 549 1047 568 1027 q 530 1093 530 1066 q 549 1138 530 1120 q 593 1157 568 1157 z "},"Å":{"ha":926,"x_min":0,"x_max":926,"o":"m 407 953 l 503 953 l 926 0 l 787 0 l 661 281 l 258 281 l 139 0 l 0 0 l 407 953 m 606 401 l 453 745 l 311 401 l 606 401 m 465 1275 q 554 1238 517 1275 q 592 1147 592 1200 q 554 1055 592 1093 q 463 1017 517 1017 q 373 1055 410 1017 q 335 1145 335 1093 q 373 1237 335 1200 q 465 1275 412 1275 m 461 1220 q 406 1199 427 1220 q 385 1145 385 1179 q 408 1090 385 1113 q 463 1067 431 1067 q 519 1090 496 1067 q 542 1144 542 1112 q 519 1198 542 1176 q 461 1220 496 1220 z "},"Ç":{"ha":983,"x_min":68,"x_max":921,"o":"m 574 -11 l 570 -22 q 628 -56 607 -31 q 648 -113 648 -81 q 607 -201 648 -165 q 475 -237 566 -237 q 431 -234 450 -237 l 431 -157 q 474 -160 465 -160 q 534 -145 513 -160 q 547 -122 547 -136 q 533 -95 547 -106 q 482 -84 519 -84 q 467 -86 475 -84 l 495 -6 q 307 53 387 6 q 132 229 196 117 q 68 471 68 340 q 215 819 68 677 q 579 960 363 960 q 911 882 728 960 l 911 736 q 586 831 745 831 q 316 728 423 831 q 208 471 208 625 q 314 214 208 315 q 585 114 420 114 q 921 220 757 114 l 921 71 q 576 -11 772 -11 l 574 -11 z "},"É":{"ha":694,"x_min":104,"x_max":654,"o":"m 104 947 l 642 947 l 642 827 l 240 827 l 240 538 l 628 538 l 628 416 l 240 416 l 240 122 l 654 122 l 654 1 l 104 1 l 104 947 m 499 1221 l 346 1017 l 270 1017 l 361 1221 l 499 1221 z "},"Ñ":{"ha":1084,"x_min":109,"x_max":986,"o":"m 857 947 l 986 947 l 986 0 l 869 0 l 236 729 l 236 0 l 109 0 l 109 947 l 218 947 l 857 212 l 857 947 m 764 1205 q 726 1077 763 1123 q 654 1041 697 1041 q 554 1068 617 1041 q 459 1095 491 1095 q 429 1082 441 1095 q 413 1041 416 1068 l 356 1041 q 395 1169 367 1137 q 467 1201 424 1201 q 595 1165 507 1201 q 661 1147 641 1147 q 693 1160 680 1147 q 711 1205 706 1173 l 764 1205 z "},"Ö":{"ha":1143,"x_min":62,"x_max":1082,"o":"m 570 961 q 936 822 789 961 q 1082 473 1082 683 q 934 126 1082 264 q 562 -11 787 -11 q 205 126 348 -11 q 62 471 62 264 q 206 822 62 683 q 570 961 350 961 m 575 832 q 308 730 412 832 q 203 471 203 629 q 308 216 203 317 q 571 114 413 114 q 836 218 730 114 q 942 476 942 321 q 836 729 942 627 q 575 832 730 832 m 432 1157 q 478 1138 458 1157 q 497 1092 497 1119 q 479 1046 497 1065 q 434 1027 460 1027 q 388 1047 407 1027 q 369 1093 369 1066 q 388 1138 369 1120 q 432 1157 406 1157 m 693 1157 q 739 1138 720 1157 q 758 1092 758 1119 q 740 1046 758 1065 q 695 1027 722 1027 q 649 1047 668 1027 q 630 1093 630 1066 q 649 1138 630 1120 q 693 1157 667 1157 z "},"Ü":{"ha":983,"x_min":85,"x_max":900,"o":"m 764 947 l 900 947 l 900 410 q 884 245 900 300 q 845 152 868 189 q 787 86 821 115 q 493 -11 675 -11 q 196 85 308 -11 q 139 152 162 115 q 100 243 115 189 q 85 411 85 296 l 85 947 l 221 947 l 221 410 q 252 224 221 276 q 345 140 282 172 q 492 109 407 109 q 688 172 612 109 q 746 252 728 205 q 764 410 764 298 l 764 947 m 361 1157 q 407 1138 388 1157 q 427 1092 427 1119 q 408 1046 427 1065 q 363 1027 390 1027 q 317 1047 336 1027 q 298 1093 298 1066 q 317 1138 298 1120 q 361 1157 336 1157 m 623 1157 q 668 1138 649 1157 q 688 1092 688 1119 q 669 1046 688 1065 q 625 1027 651 1027 q 578 1047 597 1027 q 559 1093 559 1066 q 578 1138 559 1120 q 623 1157 597 1157 z "},"á":{"ha":593,"x_min":37,"x_max":571,"o":"m 479 375 l 479 110 q 501 78 479 78 q 571 111 524 78 l 571 36 q 504 -1 529 9 q 450 -11 478 -11 q 357 52 371 -11 q 189 -9 278 -9 q 81 34 124 -9 q 37 142 37 77 q 80 247 37 201 q 200 321 122 294 l 358 375 l 358 408 q 245 521 358 521 q 49 416 144 521 l 49 551 q 256 636 121 636 q 418 583 357 636 q 454 538 438 566 q 475 482 471 510 q 479 375 479 454 m 358 123 l 358 309 l 275 277 q 186 226 212 252 q 160 163 160 201 q 185 100 160 124 q 249 75 210 75 q 358 123 308 75 m 449 962 l 296 759 l 220 759 l 311 962 l 449 962 z "},"à":{"ha":593,"x_min":37,"x_max":571,"o":"m 479 375 l 479 110 q 501 78 479 78 q 571 111 524 78 l 571 36 q 504 -1 529 9 q 450 -11 478 -11 q 357 52 371 -11 q 189 -9 278 -9 q 81 34 124 -9 q 37 142 37 77 q 80 247 37 201 q 200 321 122 294 l 358 375 l 358 408 q 245 521 358 521 q 49 416 144 521 l 49 551 q 256 636 121 636 q 418 583 357 636 q 454 538 438 566 q 475 482 471 510 q 479 375 479 454 m 358 123 l 358 309 l 275 277 q 186 226 212 252 q 160 163 160 201 q 185 100 160 124 q 249 75 210 75 q 358 123 308 75 m 287 963 l 380 760 l 304 760 l 149 963 l 287 963 z "},"â":{"ha":593,"x_min":37,"x_max":571,"o":"m 479 375 l 479 110 q 501 78 479 78 q 571 111 524 78 l 571 36 q 504 -1 529 9 q 450 -11 478 -11 q 357 52 371 -11 q 189 -9 278 -9 q 81 34 124 -9 q 37 142 37 77 q 80 247 37 201 q 200 321 122 294 l 358 375 l 358 408 q 245 521 358 521 q 49 416 144 521 l 49 551 q 256 636 121 636 q 418 583 357 636 q 454 538 438 566 q 475 482 471 510 q 479 375 479 454 m 358 123 l 358 309 l 275 277 q 186 226 212 252 q 160 163 160 201 q 185 100 160 124 q 249 75 210 75 q 358 123 308 75 m 359 968 l 490 758 l 414 758 l 292 878 l 176 758 l 103 758 l 230 968 l 359 968 z "},"ä":{"ha":593,"x_min":37,"x_max":571,"o":"m 479 375 l 479 110 q 501 78 479 78 q 571 111 524 78 l 571 36 q 504 -1 529 9 q 450 -11 478 -11 q 357 52 371 -11 q 189 -9 278 -9 q 81 34 124 -9 q 37 142 37 77 q 80 247 37 201 q 200 321 122 294 l 358 375 l 358 408 q 245 521 358 521 q 49 416 144 521 l 49 551 q 256 636 121 636 q 418 583 357 636 q 454 538 438 566 q 475 482 471 510 q 479 375 479 454 m 358 123 l 358 309 l 275 277 q 186 226 212 252 q 160 163 160 201 q 185 100 160 124 q 249 75 210 75 q 358 123 308 75 m 165 926 q 211 907 192 926 q 231 861 231 888 q 212 815 231 834 q 168 797 194 797 q 121 816 140 797 q 102 862 102 836 q 121 908 102 889 q 165 926 140 926 m 427 926 q 472 907 453 926 q 492 861 492 888 q 473 815 492 834 q 429 797 455 797 q 382 816 401 797 q 363 862 363 836 q 382 908 363 889 q 427 926 401 926 z "},"ã":{"ha":593,"x_min":37,"x_max":571,"o":"m 479 375 l 479 110 q 501 78 479 78 q 571 111 524 78 l 571 36 q 504 -1 529 9 q 450 -11 478 -11 q 357 52 371 -11 q 189 -9 278 -9 q 81 34 124 -9 q 37 142 37 77 q 80 247 37 201 q 200 321 122 294 l 358 375 l 358 408 q 245 521 358 521 q 49 416 144 521 l 49 551 q 256 636 121 636 q 418 583 357 636 q 454 538 438 566 q 475 482 471 510 q 479 375 479 454 m 358 123 l 358 309 l 275 277 q 186 226 212 252 q 160 163 160 201 q 185 100 160 124 q 249 75 210 75 q 358 123 308 75 m 500 947 q 463 819 500 865 q 391 783 434 783 q 291 810 354 783 q 196 838 228 838 q 165 824 178 838 q 150 783 153 810 l 93 783 q 132 911 104 879 q 204 943 161 943 q 332 907 243 943 q 397 889 378 889 q 430 902 416 889 q 448 947 443 916 l 500 947 z "},"å":{"ha":593,"x_min":37,"x_max":571,"o":"m 479 375 l 479 110 q 501 78 479 78 q 571 111 524 78 l 571 36 q 504 -1 529 9 q 450 -11 478 -11 q 357 52 371 -11 q 189 -9 278 -9 q 81 34 124 -9 q 37 142 37 77 q 80 247 37 201 q 200 321 122 294 l 358 375 l 358 408 q 245 521 358 521 q 49 416 144 521 l 49 551 q 256 636 121 636 q 418 583 357 636 q 454 538 438 566 q 475 482 471 510 q 479 375 479 454 m 358 123 l 358 309 l 275 277 q 186 226 212 252 q 160 163 160 201 q 185 100 160 124 q 249 75 210 75 q 358 123 308 75 m 298 1015 q 388 978 350 1015 q 425 887 425 941 q 388 795 425 833 q 296 758 350 758 q 206 795 243 758 q 168 886 168 833 q 207 978 168 940 q 298 1015 245 1015 m 294 960 q 239 940 260 960 q 218 886 218 919 q 241 830 218 853 q 296 808 264 808 q 352 830 329 808 q 375 884 375 852 q 352 938 375 916 q 294 960 329 960 z "},"ç":{"ha":608,"x_min":53,"x_max":555,"o":"m 365 -11 l 361 -22 q 419 -56 398 -31 q 439 -113 439 -81 q 398 -201 439 -165 q 266 -237 357 -237 q 222 -234 241 -237 l 222 -157 q 265 -160 256 -160 q 326 -145 304 -160 q 338 -122 338 -136 q 325 -95 338 -106 q 273 -84 311 -84 q 258 -86 266 -84 l 288 -3 q 126 90 199 17 q 53 309 53 163 q 138 546 53 456 q 361 636 222 636 q 447 627 409 636 q 542 593 486 618 l 542 461 q 368 521 448 521 q 231 462 285 521 q 178 313 178 404 q 236 161 178 217 q 392 104 294 104 q 555 146 463 104 l 555 24 q 374 -11 463 -11 l 365 -11 z "},"é":{"ha":665,"x_min":57,"x_max":619,"o":"m 619 301 l 180 301 q 240 159 185 212 q 383 106 296 106 q 608 182 505 106 l 608 61 q 495 7 551 23 q 364 -9 439 -9 q 197 33 261 -9 q 95 148 134 76 q 57 315 57 220 q 138 547 57 458 q 347 636 218 636 q 545 549 471 636 q 619 317 619 463 l 619 301 m 183 375 l 497 375 q 453 489 492 449 q 347 529 414 529 q 238 489 281 529 q 183 375 196 449 m 486 962 l 332 759 l 256 759 l 348 962 l 486 962 z "},"è":{"ha":665,"x_min":57,"x_max":619,"o":"m 619 301 l 180 301 q 240 159 185 212 q 383 106 296 106 q 608 182 505 106 l 608 61 q 495 7 551 23 q 364 -9 439 -9 q 197 33 261 -9 q 95 148 134 76 q 57 315 57 220 q 138 547 57 458 q 347 636 218 636 q 545 549 471 636 q 619 317 619 463 l 619 301 m 183 375 l 497 375 q 453 489 492 449 q 347 529 414 529 q 238 489 281 529 q 183 375 196 449 m 323 962 l 417 759 l 341 759 l 185 962 l 323 962 z "},"ê":{"ha":665,"x_min":57,"x_max":619,"o":"m 619 301 l 180 301 q 240 159 185 212 q 383 106 296 106 q 608 182 505 106 l 608 61 q 495 7 551 23 q 364 -9 439 -9 q 197 33 261 -9 q 95 148 134 76 q 57 315 57 220 q 138 547 57 458 q 347 636 218 636 q 545 549 471 636 q 619 317 619 463 l 619 301 m 183 375 l 497 375 q 453 489 492 449 q 347 529 414 529 q 238 489 281 529 q 183 375 196 449 m 395 968 l 526 758 l 450 758 l 328 878 l 212 758 l 139 758 l 266 968 l 395 968 z "},"ë":{"ha":665,"x_min":57,"x_max":619,"o":"m 619 301 l 180 301 q 240 159 185 212 q 383 106 296 106 q 608 182 505 106 l 608 61 q 495 7 551 23 q 364 -9 439 -9 q 197 33 261 -9 q 95 148 134 76 q 57 315 57 220 q 138 547 57 458 q 347 636 218 636 q 545 549 471 636 q 619 317 619 463 l 619 301 m 183 375 l 497 375 q 453 489 492 449 q 347 529 414 529 q 238 489 281 529 q 183 375 196 449 m 201 926 q 247 907 228 926 q 267 861 267 888 q 248 815 267 834 q 203 797 230 797 q 157 816 176 797 q 138 862 138 836 q 157 908 138 889 q 201 926 176 926 m 463 926 q 508 907 489 926 q 528 861 528 888 q 509 815 528 834 q 465 797 491 797 q 418 816 437 797 q 399 862 399 836 q 418 908 399 889 q 463 926 437 926 z "},"í":{"ha":304,"x_min":90,"x_max":354,"o":"m 90 624 l 214 624 l 214 0 l 90 0 l 90 624 m 354 962 l 201 759 l 125 759 l 216 962 l 354 962 z "},"ì":{"ha":304,"x_min":-25,"x_max":214,"o":"m 90 624 l 214 624 l 214 0 l 90 0 l 90 624 m 113 962 l 207 759 l 131 759 l -25 962 l 113 962 z "},"î":{"ha":304,"x_min":-31,"x_max":356,"o":"m 90 624 l 214 624 l 214 0 l 90 0 l 90 624 m 225 968 l 356 758 l 280 758 l 159 878 l 43 758 l -31 758 l 96 968 l 225 968 z "},"ï":{"ha":304,"x_min":-42,"x_max":347,"o":"m 90 624 l 214 624 l 214 0 l 90 0 l 90 624 m 21 926 q 67 907 47 926 q 86 861 86 888 q 68 815 86 834 q 23 797 50 797 q -23 816 -4 797 q -42 862 -42 836 q -23 908 -42 889 q 21 926 -5 926 m 282 926 q 328 907 309 926 q 347 861 347 888 q 329 815 347 834 q 284 797 311 797 q 238 816 257 797 q 219 862 219 836 q 238 908 219 889 q 282 926 256 926 z "},"ñ":{"ha":694,"x_min":85,"x_max":610,"o":"m 211 624 l 211 545 q 399 636 294 636 q 507 606 457 636 q 584 523 557 576 q 610 357 610 471 l 610 0 l 486 0 l 486 355 q 457 492 486 451 q 359 533 428 533 q 211 446 272 533 l 211 0 l 85 0 l 85 624 l 211 624 m 551 947 q 513 819 550 865 q 441 783 484 783 q 341 810 404 783 q 246 838 278 838 q 216 824 229 838 q 200 783 203 810 l 143 783 q 182 911 154 879 q 254 943 211 943 q 382 907 294 943 q 448 889 428 889 q 480 902 467 889 q 498 947 493 916 l 551 947 z "},"ó":{"ha":766,"x_min":52,"x_max":717,"o":"m 386 625 q 623 533 528 625 q 717 302 717 441 q 621 78 717 168 q 380 -11 526 -11 q 146 80 240 -11 q 52 306 52 170 q 147 534 52 443 q 386 625 242 625 m 379 514 q 233 456 290 514 q 176 307 176 397 q 235 161 176 218 q 385 104 293 104 q 533 162 475 104 q 591 309 591 219 q 531 456 591 397 q 379 514 471 514 m 523 962 l 370 759 l 294 759 l 385 962 l 523 962 z "},"ò":{"ha":766,"x_min":52,"x_max":717,"o":"m 386 625 q 623 533 528 625 q 717 302 717 441 q 621 78 717 168 q 380 -11 526 -11 q 146 80 240 -11 q 52 306 52 170 q 147 534 52 443 q 386 625 242 625 m 379 514 q 233 456 290 514 q 176 307 176 397 q 235 161 176 218 q 385 104 293 104 q 533 162 475 104 q 591 309 591 219 q 531 456 591 397 q 379 514 471 514 m 332 962 l 425 759 l 349 759 l 193 962 l 332 962 z "},"ô":{"ha":766,"x_min":52,"x_max":717,"o":"m 386 625 q 623 533 528 625 q 717 302 717 441 q 621 78 717 168 q 380 -11 526 -11 q 146 80 240 -11 q 52 306 52 170 q 147 534 52 443 q 386 625 242 625 m 379 514 q 233 456 290 514 q 176 307 176 397 q 235 161 176 218 q 385 104 293 104 q 533 162 475 104 q 591 309 591 219 q 531 456 591 397 q 379 514 471 514 m 435 968 l 566 758 l 490 758 l 368 878 l 252 758 l 179 758 l 306 968 l 435 968 z "},"ö":{"ha":766,"x_min":52,"x_max":717,"o":"m 386 625 q 623 533 528 625 q 717 302 717 441 q 621 78 717 168 q 380 -11 526 -11 q 146 80 240 -11 q 52 306 52 170 q 147 534 52 443 q 386 625 242 625 m 379 514 q 233 456 290 514 q 176 307 176 397 q 235 161 176 218 q 385 104 293 104 q 533 162 475 104 q 591 309 591 219 q 531 456 591 397 q 379 514 471 514 m 233 926 q 279 907 260 926 q 298 861 298 888 q 280 815 298 834 q 235 797 262 797 q 189 816 208 797 q 170 862 170 836 q 189 908 170 889 q 233 926 208 926 m 494 926 q 540 907 521 926 q 559 861 559 888 q 541 815 559 834 q 496 797 523 797 q 450 816 469 797 q 431 862 431 836 q 450 908 431 889 q 494 926 469 926 z "},"õ":{"ha":766,"x_min":52,"x_max":717,"o":"m 386 625 q 623 533 528 625 q 717 302 717 441 q 621 78 717 168 q 380 -11 526 -11 q 146 80 240 -11 q 52 306 52 170 q 147 534 52 443 q 386 625 242 625 m 379 514 q 233 456 290 514 q 176 307 176 397 q 235 161 176 218 q 385 104 293 104 q 533 162 475 104 q 591 309 591 219 q 531 456 591 397 q 379 514 471 514 m 602 947 q 564 819 602 865 q 493 783 536 783 q 393 810 456 783 q 298 838 330 838 q 267 824 280 838 q 252 783 254 810 l 195 783 q 234 911 205 879 q 306 943 262 943 q 434 907 345 943 q 499 889 479 889 q 531 902 518 889 q 549 947 545 916 l 602 947 z "},"ú":{"ha":694,"x_min":85,"x_max":608,"o":"m 485 0 l 485 79 q 395 13 446 37 q 294 -11 345 -11 q 185 19 235 -11 q 110 99 136 48 q 85 267 85 149 l 85 624 l 208 624 l 208 268 q 236 131 208 170 q 335 92 264 92 q 485 178 423 92 l 485 624 l 608 624 l 608 0 l 485 0 m 499 962 l 346 759 l 270 759 l 361 962 l 499 962 z "},"ù":{"ha":694,"x_min":85,"x_max":608,"o":"m 485 0 l 485 79 q 395 13 446 37 q 294 -11 345 -11 q 185 19 235 -11 q 110 99 136 48 q 85 267 85 149 l 85 624 l 208 624 l 208 268 q 236 131 208 170 q 335 92 264 92 q 485 178 423 92 l 485 624 l 608 624 l 608 0 l 485 0 m 337 962 l 431 759 l 355 759 l 199 962 l 337 962 z "},"û":{"ha":694,"x_min":85,"x_max":608,"o":"m 485 0 l 485 79 q 395 13 446 37 q 294 -11 345 -11 q 185 19 235 -11 q 110 99 136 48 q 85 267 85 149 l 85 624 l 208 624 l 208 268 q 236 131 208 170 q 335 92 264 92 q 485 178 423 92 l 485 624 l 608 624 l 608 0 l 485 0 m 409 968 l 540 758 l 464 758 l 342 878 l 227 758 l 153 758 l 280 968 l 409 968 z "},"ü":{"ha":694,"x_min":85,"x_max":608,"o":"m 485 0 l 485 79 q 395 13 446 37 q 294 -11 345 -11 q 185 19 235 -11 q 110 99 136 48 q 85 267 85 149 l 85 624 l 208 624 l 208 268 q 236 131 208 170 q 335 92 264 92 q 485 178 423 92 l 485 624 l 608 624 l 608 0 l 485 0 m 216 926 q 261 907 242 926 q 281 861 281 888 q 262 815 281 834 q 218 797 244 797 q 172 816 191 797 q 153 862 153 836 q 171 908 153 889 q 216 926 190 926 m 477 926 q 523 907 503 926 q 542 861 542 888 q 524 815 542 834 q 479 797 505 797 q 433 816 452 797 q 414 862 414 836 q 432 908 414 889 q 477 926 451 926 z "},"†":{"ha":681,"x_min":37,"x_max":643,"o":"m 343 960 q 408 835 408 960 q 386 665 408 764 l 367 575 q 546 611 460 611 q 616 593 589 611 q 643 547 643 575 q 616 504 643 521 q 550 486 590 486 q 367 522 494 486 l 372 450 l 379 371 l 388 268 q 409 -99 409 38 q 392 -270 409 -221 q 338 -318 376 -318 q 281 -272 297 -318 q 265 -110 265 -227 q 282 174 265 -45 q 304 447 298 393 l 313 522 q 296 517 309 522 q 135 486 201 486 q 64 503 90 486 q 37 546 37 519 q 63 593 37 576 q 134 611 89 611 q 313 575 224 611 l 296 660 q 273 832 273 779 q 292 926 273 892 q 343 960 311 960 z "},"°":{"ha":550,"x_min":86,"x_max":463,"o":"m 86 823 q 142 956 86 901 q 275 1011 197 1011 q 408 956 353 1011 q 463 823 463 901 q 408 690 463 745 q 275 635 353 635 q 142 690 197 635 q 86 823 86 745 m 160 823 q 194 742 160 776 q 275 708 228 708 q 355 742 322 708 q 389 823 389 776 q 356 904 389 871 q 275 937 323 937 q 194 904 227 937 q 160 823 160 871 z "},"¢":{"ha":608,"x_min":53,"x_max":566,"o":"m 501 861 l 566 861 l 478 618 q 494 612 492 612 q 541 591 523 602 l 541 461 q 439 511 498 496 l 297 121 q 385 103 347 103 q 476 115 428 103 q 554 146 524 127 l 554 26 q 366 -12 456 -12 q 256 0 306 -12 l 160 -262 l 94 -262 l 201 26 q 93 139 132 65 q 53 302 53 213 q 138 545 53 454 q 366 636 223 636 q 419 632 382 636 l 501 861 m 245 151 l 379 521 l 367 521 q 230 461 283 521 q 178 307 178 402 q 245 151 178 212 z "},"£":{"ha":737,"x_min":82,"x_max":701,"o":"m 471 -5 l 397 5 q 297 12 349 12 q 82 -11 184 12 l 192 397 l 92 397 l 92 518 l 224 518 q 315 757 259 649 q 437 912 372 865 q 574 960 503 960 q 624 954 592 960 l 701 810 q 603 831 662 831 q 472 766 528 831 q 371 561 416 701 l 357 518 l 463 518 l 463 397 l 321 397 l 252 135 q 304 138 272 138 q 428 129 379 138 l 482 119 q 549 114 507 114 q 689 144 639 114 l 689 12 q 550 -11 616 -11 q 471 -5 506 -11 z "},"§":{"ha":564,"x_min":45,"x_max":519,"o":"m 98 745 q 158 898 98 837 q 307 960 218 960 q 426 927 380 960 q 472 842 472 894 q 452 787 472 808 q 400 765 431 765 q 360 782 376 765 q 345 823 345 798 l 345 831 q 346 842 346 836 q 302 871 346 871 q 235 845 260 871 q 210 777 210 820 q 332 574 210 689 l 396 514 q 480 403 441 473 q 519 260 519 334 q 496 150 519 199 q 416 45 472 100 q 465 -107 465 -22 q 403 -257 465 -195 q 252 -318 341 -318 q 134 -283 180 -318 q 87 -195 87 -248 q 110 -134 87 -159 q 164 -109 132 -109 q 212 -127 193 -109 q 231 -175 231 -146 q 228 -198 231 -186 q 227 -205 227 -203 q 236 -222 227 -215 q 258 -229 245 -229 q 329 -199 299 -229 q 358 -129 358 -170 q 328 -39 358 -86 q 214 98 297 9 q 109 217 138 174 q 62 314 79 261 q 45 418 45 367 q 136 611 45 528 q 98 745 98 676 m 294 436 l 195 533 q 151 431 151 483 q 163 370 151 403 q 196 306 175 337 q 292 197 218 275 l 359 125 q 397 181 382 149 q 411 241 411 214 q 402 295 411 269 q 378 345 394 321 q 294 436 361 369 z "},"•":{"ha":492,"x_min":74,"x_max":418,"o":"m 74 473 q 124 595 74 545 q 245 646 175 646 q 368 595 317 646 q 418 473 418 545 q 367 352 418 402 q 245 301 317 301 q 124 352 175 301 q 74 473 74 403 z "},"¶":{"ha":753,"x_min":1,"x_max":750,"o":"m 386 -275 l 275 -275 l 275 432 q 75 514 149 439 q 1 711 1 589 q 83 917 1 840 q 174 972 119 950 q 321 994 229 994 l 750 994 l 750 876 l 653 876 l 653 -275 l 538 -275 l 538 876 l 386 876 l 386 -275 z "},"ß":{"ha":694,"x_min":82,"x_max":648,"o":"m 321 574 l 339 574 q 448 612 409 574 q 486 718 486 650 q 446 823 486 782 q 343 864 406 864 q 238 820 271 864 q 205 679 205 776 l 205 0 l 82 0 l 82 677 q 109 828 82 762 q 196 927 136 895 q 346 960 256 960 q 538 899 468 960 q 608 733 608 838 q 572 605 608 661 q 472 522 536 549 q 602 435 556 500 q 648 272 648 370 q 581 69 648 147 q 406 -9 513 -9 q 310 0 354 -9 l 310 121 q 378 106 344 106 q 484 153 444 106 q 524 281 524 201 q 504 374 524 334 q 445 436 484 414 q 321 461 406 459 l 321 574 z "},"®":{"ha":1028,"x_min":1,"x_max":1026,"o":"m 398 175 l 309 175 l 309 725 l 500 725 q 643 709 601 725 q 709 656 684 693 q 734 576 734 618 q 690 470 734 513 q 577 421 646 427 q 636 379 608 408 q 705 282 663 349 l 772 175 l 663 175 l 615 261 q 532 381 563 354 q 451 409 502 409 l 398 409 l 398 175 m 398 650 l 398 485 l 507 485 q 608 505 576 485 q 640 568 640 525 q 609 632 640 614 q 500 650 578 650 l 398 650 m 514 961 q 770 892 651 961 q 957 705 888 823 q 1026 450 1026 587 q 958 194 1026 312 q 770 7 889 76 q 514 -61 652 -61 q 257 7 376 -61 q 70 194 138 75 q 1 450 1 312 q 70 706 1 587 q 258 892 139 824 q 514 961 376 961 m 514 876 q 213 751 338 876 q 87 450 87 626 q 212 148 87 273 q 514 24 337 24 q 815 149 690 24 q 940 450 940 273 q 815 751 940 626 q 514 876 690 876 z "},"©":{"ha":1028,"x_min":1,"x_max":1026,"o":"m 751 576 l 671 557 q 517 661 629 661 q 387 603 435 661 q 339 446 339 544 q 385 292 339 348 q 510 236 431 236 q 617 271 572 236 q 677 366 662 306 l 761 342 q 674 205 740 255 q 514 155 608 155 q 319 235 392 155 q 245 448 245 315 q 319 659 245 582 q 519 736 393 736 q 668 694 608 736 q 751 576 728 653 m 514 961 q 770 892 651 961 q 957 705 888 823 q 1026 450 1026 587 q 958 194 1026 312 q 770 7 889 76 q 514 -61 652 -61 q 257 7 376 -61 q 70 194 138 75 q 1 450 1 312 q 70 706 1 587 q 258 892 139 824 q 514 961 376 961 m 514 876 q 213 751 338 876 q 87 450 87 626 q 212 148 87 273 q 514 24 337 24 q 815 149 690 24 q 940 450 940 273 q 815 751 940 626 q 514 876 690 876 z "},"™":{"ha":1389,"x_min":153,"x_max":1210,"o":"m 424 395 l 332 395 l 332 866 l 153 866 l 153 947 l 604 947 l 604 866 l 424 866 l 424 395 m 751 395 l 667 395 l 667 947 l 803 947 l 942 506 l 1076 947 l 1210 947 l 1210 395 l 1125 395 l 1125 859 l 983 395 l 900 395 l 751 866 l 751 395 z "},"´":{"ha":463,"x_min":155,"x_max":384,"o":"m 384 962 l 231 759 l 155 759 l 246 962 l 384 962 z "},"¨":{"ha":463,"x_min":37,"x_max":427,"o":"m 100 926 q 146 907 127 926 q 165 861 165 888 q 147 815 165 834 q 102 797 129 797 q 56 816 75 797 q 37 862 37 836 q 56 908 37 889 q 100 926 75 926 m 361 926 q 407 907 388 926 q 427 861 427 888 q 408 815 427 834 q 363 797 390 797 q 317 816 336 797 q 298 862 298 836 q 317 908 298 889 q 361 926 336 926 z "},"≠":{"ha":810,"x_min":77,"x_max":734,"o":"m 281 283 l 77 283 l 77 397 l 326 397 l 400 585 l 77 585 l 77 699 l 445 699 l 587 1061 l 671 1061 l 530 699 l 734 699 l 734 585 l 486 585 l 412 397 l 734 397 l 734 283 l 368 283 l 226 -81 l 140 -81 l 281 283 z "},"Æ":{"ha":1244,"x_min":3,"x_max":1197,"o":"m 564 947 l 1182 947 l 1182 827 l 793 827 l 793 541 l 1169 541 l 1169 419 l 793 419 l 793 122 l 1197 122 l 1197 1 l 657 1 l 657 419 l 399 419 l 151 1 l 3 1 l 564 947 m 657 541 l 657 856 l 469 541 l 657 541 z "},"Ø":{"ha":1143,"x_min":64,"x_max":1080,"o":"m 932 962 l 996 907 l 932 829 q 1041 672 1002 765 q 1080 476 1080 579 q 936 129 1080 267 q 571 -9 791 -9 q 278 68 393 -9 l 210 -12 l 144 40 l 210 121 q 102 276 140 184 q 64 469 64 368 q 208 821 64 682 q 572 960 352 960 q 865 880 727 960 l 932 962 m 840 726 l 366 171 q 571 115 463 115 q 836 218 731 115 q 940 478 940 321 q 913 614 940 548 q 840 726 887 680 m 300 222 l 777 779 q 574 835 681 835 q 309 732 414 835 q 204 475 204 630 q 300 222 204 332 z "},"∞":{"ha":990,"x_min":104,"x_max":888,"o":"m 467 551 q 578 669 538 640 q 693 708 633 708 q 826 656 764 708 q 888 490 888 605 q 865 365 888 410 q 793 291 842 319 q 693 263 745 263 q 578 302 633 263 q 467 420 538 331 q 271 304 375 304 q 154 356 203 304 q 104 486 104 408 q 154 614 104 562 q 271 667 203 667 q 467 551 375 667 m 514 486 q 622 361 573 395 q 692 338 653 338 q 778 376 743 338 q 813 484 813 414 q 778 593 813 555 q 689 631 742 631 q 627 612 656 631 q 514 486 587 586 m 420 486 q 334 573 366 553 q 271 592 301 592 q 206 564 232 592 q 180 488 180 536 q 207 411 180 439 q 273 382 234 382 q 420 486 341 382 z "},"±":{"ha":811,"x_min":77,"x_max":734,"o":"m 348 176 l 348 450 l 77 450 l 77 563 l 348 563 l 348 833 l 463 833 l 463 563 l 734 563 l 734 450 l 463 450 l 463 176 l 348 176 m 734 0 l 77 0 l 77 114 l 734 114 l 734 0 z "},"≤":{"ha":810,"x_min":77,"x_max":734,"o":"m 77 517 l 77 631 l 734 909 l 734 787 l 213 573 l 734 357 l 734 235 l 77 517 m 734 72 l 77 72 l 77 185 l 734 185 l 734 72 z "},"≥":{"ha":810,"x_min":77,"x_max":734,"o":"m 734 517 l 77 235 l 77 357 l 598 573 l 77 787 l 77 909 l 734 631 l 734 517 m 734 72 l 77 72 l 77 185 l 734 185 l 734 72 z "},"¥":{"ha":766,"x_min":0,"x_max":768,"o":"m 447 0 l 323 0 l 323 221 l 41 221 l 41 314 l 323 314 l 323 411 l 41 411 l 41 513 l 273 513 l 0 994 l 135 994 l 330 644 q 382 541 364 586 q 437 650 395 569 l 624 994 l 768 994 l 494 513 l 725 513 l 725 411 l 447 411 l 447 314 l 725 314 l 725 221 l 447 221 l 447 0 z "},"µ":{"ha":766,"x_min":121,"x_max":646,"o":"m 538 0 l 538 74 q 472 6 507 26 q 385 -14 437 -14 q 304 3 336 -14 q 239 62 272 20 l 239 -237 l 121 -237 l 121 624 l 239 624 l 239 321 q 253 179 239 222 q 300 108 267 136 q 379 81 334 81 q 462 106 425 81 q 513 174 498 132 q 528 318 528 216 l 528 624 l 646 624 l 646 0 l 538 0 z "},"∂":{"ha":686,"x_min":35,"x_max":657,"o":"m 286 772 l 195 812 q 309 965 242 919 q 439 1011 375 1011 q 532 984 490 1011 q 595 923 574 958 q 642 796 627 869 q 657 628 657 723 q 598 280 657 433 q 440 56 540 128 q 244 -17 340 -17 q 93 45 151 -17 q 35 218 35 106 q 139 481 35 372 q 579 627 273 621 q 563 800 576 741 q 517 892 549 860 q 440 924 484 924 q 358 891 398 924 q 286 772 318 857 m 576 540 q 334 494 411 530 q 207 374 257 457 q 157 205 157 291 q 192 113 157 149 q 273 76 227 76 q 381 113 323 76 q 510 272 460 165 q 576 540 560 380 z "},"∑":{"ha":990,"x_min":83,"x_max":940,"o":"m 94 1011 l 933 1011 l 933 900 l 263 900 l 675 374 l 235 -183 l 940 -183 l 940 -292 l 83 -292 l 83 -165 l 503 369 l 94 892 l 94 1011 z "},"∏":{"ha":1143,"x_min":109,"x_max":1033,"o":"m 109 1011 l 1033 1011 l 1033 -292 l 903 -292 l 903 893 l 240 893 l 240 -292 l 109 -292 l 109 1011 z "},"π":{"ha":762,"x_min":0,"x_max":762,"o":"m 0 721 l 762 721 l 762 614 l 652 614 l 652 0 l 524 0 l 524 614 l 235 614 l 235 0 l 108 0 l 108 614 l 0 614 l 0 721 z "},"∫":{"ha":380,"x_min":7,"x_max":408,"o":"m 408 1194 q 388 1150 408 1167 q 337 1133 368 1133 q 296 1150 312 1133 q 267 1167 281 1167 q 248 1157 254 1167 q 241 1128 241 1147 q 255 954 241 1105 q 268 581 268 804 q 248 99 268 238 q 194 -92 227 -39 q 148 -134 176 -120 q 90 -149 120 -149 q 32 -125 57 -149 q 7 -67 7 -101 q 24 -23 7 -41 q 68 -5 41 -5 q 112 -27 91 -5 q 142 -50 134 -50 q 169 -19 159 -50 q 179 85 179 11 q 175 218 179 110 q 171 600 171 327 q 182 1033 171 926 q 210 1179 194 1139 q 257 1249 230 1226 q 314 1272 284 1272 q 380 1250 353 1272 q 408 1194 408 1228 z "},"ª":{"ha":390,"x_min":21,"x_max":379,"o":"m 321 802 l 321 661 q 328 631 321 631 q 379 659 338 631 l 379 600 q 293 568 327 568 q 229 600 241 568 q 125 568 180 568 q 51 596 81 568 q 21 665 21 624 q 132 774 21 739 l 227 804 l 227 821 q 164 882 227 882 q 98 866 129 882 q 28 810 68 850 l 28 905 q 168 960 77 960 q 285 923 250 960 q 321 802 321 886 m 227 654 l 227 754 l 183 739 q 132 711 146 726 q 117 676 117 697 q 165 629 117 629 q 227 654 195 629 z "},"º":{"ha":507,"x_min":32,"x_max":475,"o":"m 244 960 q 411 906 347 960 q 475 766 475 852 q 411 631 475 685 q 252 576 347 576 q 95 632 158 576 q 32 770 32 687 q 92 906 32 852 q 244 960 151 960 m 252 886 q 164 852 199 886 q 129 766 129 818 q 164 686 129 717 q 254 654 199 654 q 344 687 309 654 q 379 770 379 719 q 343 853 379 821 q 252 886 307 886 z "},"Ω":{"ha":1067,"x_min":86,"x_max":1000,"o":"m 336 109 q 224 197 263 154 q 134 350 165 262 q 102 544 102 437 q 156 788 102 677 q 312 960 210 900 q 548 1019 415 1019 q 898 847 776 1019 q 987 543 987 721 q 950 341 987 429 q 854 191 913 254 q 753 109 819 151 l 1000 113 l 1000 0 l 610 0 l 610 120 q 694 173 665 147 q 777 271 743 214 q 828 393 811 328 q 846 527 846 457 q 812 715 846 621 q 710 859 779 810 q 545 909 642 909 q 345 827 416 909 q 245 529 245 713 q 307 276 245 382 q 477 122 369 171 l 477 0 l 86 0 l 86 114 l 336 109 z "},"æ":{"ha":926,"x_min":49,"x_max":872,"o":"m 635 636 q 807 560 742 636 q 872 358 872 484 l 872 339 l 488 339 q 517 198 491 248 q 585 124 543 149 q 682 100 627 100 q 872 175 771 100 l 872 54 q 771 3 816 17 q 660 -11 726 -11 q 537 16 595 -11 q 450 85 478 43 q 216 -11 329 -11 q 95 33 142 -11 q 49 147 49 77 q 81 241 49 199 q 179 311 113 282 q 278 347 245 340 l 364 374 l 364 393 q 341 492 364 463 q 261 521 317 521 q 62 418 155 521 l 62 567 q 160 621 115 605 q 262 636 205 636 q 450 555 385 636 q 544 618 502 600 q 635 636 585 636 m 503 418 l 749 418 q 710 500 741 471 q 631 529 680 529 q 503 418 538 529 m 364 110 l 364 311 l 297 285 q 200 232 229 258 q 171 171 171 205 q 197 102 171 130 q 260 74 223 74 q 304 81 285 74 q 364 110 324 88 z "},"ø":{"ha":766,"x_min":49,"x_max":718,"o":"m 575 581 l 639 657 l 685 615 l 624 543 q 718 309 718 438 q 622 79 718 169 q 375 -11 525 -11 q 192 39 276 -11 l 114 -50 l 68 -8 l 143 78 q 49 311 49 174 q 144 543 49 450 q 383 636 239 636 q 575 581 488 636 m 546 454 l 268 129 q 382 96 317 96 q 536 158 473 96 q 599 310 599 220 q 587 385 599 353 q 546 454 576 416 m 221 168 l 497 492 q 383 525 441 525 q 230 463 292 525 q 168 307 168 400 q 221 168 168 228 z "},"¿":{"ha":463,"x_min":90,"x_max":403,"o":"m 403 -117 l 313 -264 q 149 -205 207 -262 q 90 -62 90 -148 q 112 52 90 -8 q 210 229 134 113 q 300 424 300 366 q 296 453 300 431 q 361 401 342 431 q 380 322 380 371 q 365 237 380 275 q 288 104 349 200 q 231 -46 231 12 q 256 -114 231 -89 q 325 -139 281 -139 q 403 -117 357 -139 m 195 625 q 219 683 195 659 q 279 707 244 707 q 339 683 315 707 q 363 625 363 660 q 338 566 363 590 q 279 542 314 542 q 219 566 243 542 q 195 625 195 590 z "},"¡":{"ha":376,"x_min":103,"x_max":272,"o":"m 103 627 q 128 685 103 661 q 187 710 153 710 q 248 686 223 710 q 272 627 272 662 q 248 565 272 590 q 189 541 224 541 q 128 565 153 541 q 103 627 103 590 m 140 257 l 150 307 q 171 399 163 378 q 186 421 178 421 q 203 399 197 421 q 214 363 203 395 q 246 176 229 319 q 264 -66 264 34 q 187 -265 264 -265 q 110 -71 110 -265 q 140 257 110 98 z "},"¬":{"ha":811,"x_min":77,"x_max":733,"o":"m 733 174 l 618 174 l 618 471 l 77 471 l 77 585 l 733 585 l 733 174 z "},"√":{"ha":762,"x_min":14,"x_max":715,"o":"m 715 1267 l 507 -53 l 170 644 l 36 579 l 14 625 l 216 725 l 490 165 l 667 1274 l 715 1267 z "},"ƒ":{"ha":766,"x_min":32,"x_max":736,"o":"m 489 625 l 359 -114 q 302 -250 343 -209 q 183 -290 262 -290 q 32 -273 114 -290 l 56 -168 q 158 -183 123 -183 q 216 -161 198 -183 q 244 -79 234 -140 l 366 625 l 229 625 l 244 720 l 382 720 l 399 811 q 447 953 414 909 q 595 1014 498 1014 q 675 1000 622 1014 l 724 989 l 736 986 l 713 882 q 608 899 640 899 q 548 877 566 899 q 519 790 531 856 l 507 720 l 644 720 l 628 625 l 489 625 z "},"≈":{"ha":810,"x_min":58,"x_max":753,"o":"m 236 593 q 151 573 189 593 q 58 501 113 554 l 58 640 q 248 722 132 722 q 433 675 326 722 l 488 651 q 578 631 530 631 q 753 723 667 631 l 753 580 q 566 503 670 503 q 399 544 494 503 l 357 562 q 236 593 286 593 m 236 347 q 151 328 189 347 q 58 256 113 309 l 58 394 q 248 476 132 476 q 433 429 326 476 l 488 406 q 578 386 530 386 q 753 477 667 386 l 753 334 q 566 257 670 257 q 399 298 494 257 l 357 317 q 236 347 286 347 z "},"∆":{"ha":850,"x_min":8,"x_max":844,"o":"m 453 956 l 844 0 l 8 0 l 453 956 m 403 718 l 100 68 l 672 68 l 403 718 z "},"«":{"ha":681,"x_min":39,"x_max":648,"o":"m 443 313 l 648 0 l 526 0 l 322 313 l 526 624 l 648 624 l 443 313 m 161 313 l 367 0 l 244 0 l 39 313 l 244 624 l 367 624 l 161 313 z "},"»":{"ha":681,"x_min":32,"x_max":640,"o":"m 237 311 l 32 624 l 153 624 l 358 311 l 153 0 l 32 0 l 237 311 m 519 311 l 314 624 l 435 624 l 640 311 l 435 0 l 314 0 l 519 311 z "},"…":{"ha":1389,"x_min":149,"x_max":1240,"o":"m 1158 154 q 1217 130 1193 154 q 1240 71 1240 105 q 1217 13 1240 37 q 1158 -11 1193 -11 q 1099 13 1123 -11 q 1075 71 1075 36 q 1099 130 1075 106 q 1158 154 1123 154 m 694 154 q 753 130 729 154 q 778 71 778 105 q 753 13 778 37 q 694 -11 729 -11 q 636 13 660 -11 q 612 71 612 37 q 636 130 612 105 q 694 154 660 154 m 231 153 q 290 127 265 153 q 314 68 314 102 q 290 11 314 34 q 231 -12 266 -12 q 172 11 196 -12 q 149 68 149 34 q 173 128 149 103 q 231 153 197 153 z "}," ":{"ha":386,"x_min":0,"x_max":0,"o":""},"À":{"ha":926,"x_min":0,"x_max":926,"o":"m 407 953 l 503 953 l 926 0 l 787 0 l 661 281 l 258 281 l 139 0 l 0 0 l 407 953 m 606 401 l 453 745 l 311 401 l 606 401 m 432 1221 l 526 1017 l 450 1017 l 294 1221 l 432 1221 z "},"Ã":{"ha":926,"x_min":0,"x_max":926,"o":"m 407 953 l 503 953 l 926 0 l 787 0 l 661 281 l 258 281 l 139 0 l 0 0 l 407 953 m 606 401 l 453 745 l 311 401 l 606 401 m 654 1205 q 616 1077 653 1123 q 545 1041 587 1041 q 444 1068 507 1041 q 349 1095 381 1095 q 319 1082 332 1095 q 303 1041 306 1068 l 246 1041 q 286 1169 257 1137 q 357 1201 314 1201 q 486 1165 397 1201 q 551 1147 531 1147 q 583 1160 570 1147 q 601 1205 596 1173 l 654 1205 z "},"Õ":{"ha":1143,"x_min":62,"x_max":1082,"o":"m 570 961 q 936 822 789 961 q 1082 473 1082 683 q 934 126 1082 264 q 562 -11 787 -11 q 205 126 348 -11 q 62 471 62 264 q 206 822 62 683 q 570 961 350 961 m 575 832 q 308 730 412 832 q 203 471 203 629 q 308 216 203 317 q 571 114 413 114 q 836 218 730 114 q 942 476 942 321 q 836 729 942 627 q 575 832 730 832 m 779 1205 q 741 1077 778 1123 q 669 1041 712 1041 q 569 1068 632 1041 q 474 1095 506 1095 q 444 1082 456 1095 q 428 1041 431 1068 l 371 1041 q 410 1169 382 1137 q 482 1201 439 1201 q 610 1165 522 1201 q 675 1147 656 1147 q 708 1160 694 1147 q 726 1205 721 1173 l 779 1205 z "},"Œ":{"ha":1274,"x_min":65,"x_max":1231,"o":"m 602 947 l 1215 947 l 1215 827 l 828 827 l 828 541 l 1202 541 l 1202 419 l 828 419 l 828 122 l 1231 122 l 1231 1 l 647 1 q 394 33 491 1 q 218 133 296 65 q 65 469 65 264 q 214 815 65 683 q 602 947 362 947 m 597 118 l 692 118 l 692 829 l 639 829 q 393 781 481 829 q 257 652 305 733 q 208 473 208 570 q 319 220 208 321 q 597 118 431 118 z "},"œ":{"ha":1157,"x_min":49,"x_max":1108,"o":"m 867 636 q 1035 565 968 636 q 1086 479 1068 529 q 1108 339 1104 430 l 717 339 l 717 323 q 772 157 717 213 q 911 102 827 102 q 1108 179 1008 102 l 1108 54 q 1002 4 1049 18 q 884 -9 955 -9 q 652 111 725 -9 q 379 -11 552 -11 q 144 82 239 -11 q 49 311 49 174 q 146 543 49 450 q 389 636 243 636 q 652 507 553 636 q 745 603 689 569 q 867 636 802 636 m 729 419 l 985 419 q 863 529 961 529 q 780 500 814 529 q 729 419 745 471 m 385 515 q 236 456 295 515 q 178 307 178 397 q 237 164 178 221 q 386 107 296 107 q 532 164 475 107 q 589 311 589 221 q 531 457 589 399 q 385 515 473 515 z "},"–":{"ha":694,"x_min":-11,"x_max":707,"o":"m -11 396 l 707 396 l 707 307 l -11 307 l -11 396 z "},"—":{"ha":1389,"x_min":-11,"x_max":1401,"o":"m -11 396 l 1401 396 l 1401 307 l -11 307 l -11 396 z "},"“":{"ha":593,"x_min":46,"x_max":536,"o":"m 518 960 l 518 932 q 479 883 494 916 q 464 815 464 851 q 467 782 464 798 q 517 759 498 780 q 536 704 536 737 q 513 647 536 670 q 454 624 490 624 q 383 660 410 624 q 355 753 355 696 q 375 841 355 798 q 427 910 394 884 q 518 960 459 937 m 154 782 l 160 782 q 204 758 185 782 q 224 704 224 734 q 201 647 224 670 q 146 624 179 624 q 75 662 103 624 q 46 757 46 700 q 89 883 46 829 q 205 960 131 937 l 205 930 q 151 817 151 887 l 154 782 z "},"”":{"ha":593,"x_min":60,"x_max":547,"o":"m 441 777 l 441 794 q 370 876 370 804 q 392 936 370 913 q 450 960 415 960 q 520 924 494 960 q 547 831 547 889 q 504 701 547 757 q 387 624 461 646 l 387 650 q 441 777 441 697 m 129 778 l 129 793 q 78 817 97 796 q 60 871 60 838 q 82 936 60 911 q 142 960 104 960 q 211 923 184 960 q 237 828 237 887 q 75 624 237 680 l 75 650 q 129 778 129 692 z "},"‘":{"ha":304,"x_min":75,"x_max":253,"o":"m 237 960 l 237 939 q 179 804 179 874 q 180 789 179 795 q 253 704 253 766 q 228 647 253 670 q 168 624 203 624 q 100 658 125 624 q 75 750 75 692 q 237 960 75 907 z "},"’":{"ha":304,"x_min":53,"x_max":231,"o":"m 68 615 l 68 642 q 111 701 98 671 q 125 781 123 730 q 53 869 53 804 q 78 933 53 907 q 136 960 102 960 q 204 923 178 960 q 231 829 231 886 q 187 696 231 753 q 68 615 144 639 z "},"÷":{"ha":811,"x_min":77,"x_max":734,"o":"m 410 767 q 461 746 440 767 q 483 694 483 724 q 461 642 483 663 q 410 620 440 620 q 357 642 379 620 q 336 694 336 663 q 357 746 336 724 q 410 767 378 767 m 734 433 l 77 433 l 77 547 l 734 547 l 734 433 m 410 359 q 462 337 441 359 q 484 285 484 315 q 462 233 484 254 q 410 211 441 211 q 358 233 380 211 q 336 285 336 254 q 358 337 336 315 q 410 359 379 359 z "},"◊":{"ha":686,"x_min":31,"x_max":652,"o":"m 652 517 l 383 0 l 300 0 l 31 517 l 300 1035 l 383 1035 l 652 517 m 569 517 l 342 960 l 115 517 l 342 75 l 569 517 z "},"ÿ":{"ha":608,"x_min":0,"x_max":608,"o":"m 469 624 l 608 624 l 167 -318 l 29 -318 l 241 134 l 0 624 l 140 624 l 309 272 l 469 624 m 172 926 q 218 907 199 926 q 237 861 237 888 q 219 815 237 834 q 174 797 201 797 q 128 816 147 797 q 109 862 109 836 q 128 908 109 889 q 172 926 146 926 m 433 926 q 479 907 460 926 q 498 861 498 888 q 480 815 498 834 q 435 797 462 797 q 389 816 408 797 q 370 862 370 836 q 389 908 370 889 q 433 926 408 926 z "},"Ÿ":{"ha":839,"x_min":0,"x_max":839,"o":"m 675 947 l 839 947 l 489 501 l 489 0 l 350 0 l 350 501 l 0 947 l 164 947 l 418 621 l 675 947 m 271 1157 q 317 1138 298 1157 q 336 1092 336 1119 q 318 1046 336 1065 q 273 1027 300 1027 q 227 1047 246 1027 q 208 1093 208 1066 q 227 1138 208 1120 q 271 1157 245 1157 m 532 1157 q 578 1138 559 1157 q 597 1092 597 1119 q 579 1046 597 1065 q 534 1027 561 1027 q 488 1047 507 1027 q 469 1093 469 1066 q 488 1138 469 1120 q 532 1157 507 1157 z "},"∕":{"ha":275,"x_min":-224,"x_max":500,"o":"m 406 960 l 500 960 l -131 -36 l -224 -36 l 406 960 z "},"€":{"ha":847,"x_min":39,"x_max":785,"o":"m 289 616 l 692 616 l 672 511 l 272 511 q 271 477 271 496 q 272 436 271 458 l 659 436 l 639 330 l 289 330 q 545 113 351 113 q 779 205 667 113 l 779 57 q 541 -12 682 -12 q 283 79 385 -12 q 149 330 182 170 l 39 330 l 58 436 l 136 436 q 138 511 136 486 l 39 511 l 57 616 l 153 616 q 299 868 194 776 q 547 960 404 960 q 785 914 655 960 l 758 785 q 543 835 640 835 q 289 616 353 835 z "},"‹":{"ha":435,"x_min":50,"x_max":376,"o":"m 171 313 l 376 0 l 254 0 l 50 313 l 254 624 l 376 624 l 171 313 z "},"›":{"ha":435,"x_min":58,"x_max":385,"o":"m 264 311 l 58 624 l 179 624 l 385 311 l 179 0 l 58 0 l 264 311 z "},"ﬁ":{"ha":694,"x_min":18,"x_max":602,"o":"m 235 625 l 374 625 l 374 519 l 235 519 l 235 0 l 111 0 l 111 519 l 18 519 l 18 625 l 111 625 l 111 646 q 180 878 111 797 q 375 960 248 960 q 539 907 479 960 q 602 761 600 854 l 485 761 q 440 831 467 810 q 371 852 414 852 q 233 648 233 852 q 235 625 233 637 m 485 625 l 602 625 l 602 0 l 485 0 l 485 625 z "},"ﬂ":{"ha":694,"x_min":12,"x_max":607,"o":"m 229 625 l 371 625 l 371 519 l 229 519 l 229 0 l 109 0 l 109 519 l 12 519 l 12 625 l 109 625 l 109 656 q 132 817 109 758 q 208 918 155 876 q 338 960 262 960 q 421 947 381 960 l 421 835 q 366 844 386 844 q 260 801 291 844 q 229 653 229 758 l 229 625 m 484 947 l 607 947 l 607 0 l 484 0 l 484 947 z "},"‡":{"ha":681,"x_min":37,"x_max":643,"o":"m 37 579 q 64 627 37 609 q 136 646 92 646 q 314 611 205 646 l 289 725 q 273 851 273 794 q 292 929 273 899 q 342 960 311 960 q 390 928 372 960 q 408 844 408 897 q 376 650 408 776 l 367 611 q 550 646 484 646 q 616 628 590 646 q 642 583 642 610 q 615 538 642 555 q 546 521 588 521 q 367 557 474 521 q 382 403 367 509 q 390 318 390 350 q 383 249 390 302 l 371 164 q 367 86 367 138 q 553 121 471 121 q 617 103 591 121 q 643 60 643 85 q 618 15 643 31 q 550 -1 594 -1 q 367 35 467 -1 q 408 -204 408 -117 q 389 -287 408 -256 q 336 -318 369 -318 q 291 -287 308 -318 q 273 -204 273 -255 q 314 35 273 -121 q 127 -3 200 -3 q 61 14 85 -3 q 37 60 37 31 q 64 104 37 86 q 131 122 92 122 q 314 86 193 122 l 307 167 l 297 245 q 292 321 292 301 q 300 403 292 350 q 314 546 314 486 l 314 557 l 292 551 q 129 521 170 521 q 63 537 89 521 q 37 579 37 554 z "},"∙":{"ha":361,"x_min":106,"x_max":256,"o":"m 180 555 q 234 533 212 555 q 256 479 256 511 q 234 426 256 448 q 180 404 212 404 q 128 427 150 404 q 106 479 106 449 q 128 533 106 511 q 180 555 150 555 z "},"‚":{"ha":304,"x_min":53,"x_max":231,"o":"m 68 -164 l 68 -139 q 111 -80 98 -110 q 125 0 123 -51 q 53 89 53 21 q 78 152 53 125 q 136 179 102 179 q 204 142 178 179 q 231 49 231 106 q 187 -83 231 -26 q 68 -164 144 -140 z "},"„":{"ha":623,"x_min":69,"x_max":558,"o":"m 399 -160 l 399 -135 q 453 0 453 -74 q 452 16 453 7 q 399 41 418 20 q 380 97 380 63 q 403 157 380 134 q 461 180 426 180 q 531 144 505 180 q 558 49 558 108 q 515 -81 558 -24 q 399 -160 471 -138 m 85 -161 l 85 -134 q 142 -3 142 -75 q 141 3 142 -1 q 140 14 140 9 q 89 38 108 17 q 69 92 69 60 q 92 157 69 132 q 151 182 114 182 q 221 144 195 182 q 248 46 248 107 q 230 -38 248 3 q 178 -109 212 -78 q 85 -161 145 -140 z "},"‰":{"ha":1402,"x_min":18,"x_max":1386,"o":"m 710 961 l 814 961 l 191 -11 l 85 -11 l 710 961 m 675 412 q 825 351 762 412 q 888 201 888 289 q 825 54 888 115 q 675 -7 763 -7 q 525 54 587 -7 q 464 201 464 115 q 526 351 464 289 q 675 412 587 412 m 675 310 q 598 278 630 310 q 567 201 567 246 q 598 124 567 156 q 675 92 630 92 q 753 123 721 92 q 785 201 785 155 q 752 278 785 246 q 675 310 720 310 m 229 958 q 378 896 317 958 q 440 746 440 833 q 378 597 440 659 q 229 534 316 534 q 80 597 142 534 q 18 746 18 659 q 80 896 18 833 q 229 958 142 958 m 228 856 q 150 824 182 856 q 118 746 118 792 q 150 669 118 701 q 228 637 182 637 q 305 669 273 637 q 338 746 338 701 q 306 824 338 791 q 228 856 273 856 m 1175 412 q 1324 351 1263 412 q 1386 201 1386 289 q 1325 54 1386 115 q 1175 -7 1263 -7 q 1025 54 1087 -7 q 964 201 964 115 q 1026 351 964 289 q 1175 412 1088 412 m 1175 310 q 1098 278 1130 310 q 1067 201 1067 247 q 1098 123 1067 155 q 1175 92 1129 92 q 1252 124 1220 92 q 1283 201 1283 156 q 1252 278 1283 246 q 1175 310 1220 310 z "},"Â":{"ha":926,"x_min":0,"x_max":926,"o":"m 407 953 l 503 953 l 926 0 l 787 0 l 661 281 l 258 281 l 139 0 l 0 0 l 407 953 m 606 401 l 453 745 l 311 401 l 606 401 m 526 1227 l 656 1017 l 581 1017 l 459 1137 l 343 1017 l 270 1017 l 397 1227 l 526 1227 z "},"Ê":{"ha":694,"x_min":104,"x_max":654,"o":"m 104 947 l 642 947 l 642 827 l 240 827 l 240 538 l 628 538 l 628 416 l 240 416 l 240 122 l 654 122 l 654 1 l 104 1 l 104 947 m 436 1227 l 567 1017 l 491 1017 l 370 1137 l 254 1017 l 180 1017 l 307 1227 l 436 1227 z "},"Á":{"ha":926,"x_min":0,"x_max":926,"o":"m 407 953 l 503 953 l 926 0 l 787 0 l 661 281 l 258 281 l 139 0 l 0 0 l 407 953 m 606 401 l 453 745 l 311 401 l 606 401 m 616 1221 l 463 1017 l 387 1017 l 478 1221 l 616 1221 z "},"Ë":{"ha":694,"x_min":104,"x_max":654,"o":"m 104 947 l 642 947 l 642 827 l 240 827 l 240 538 l 628 538 l 628 416 l 240 416 l 240 122 l 654 122 l 654 1 l 104 1 l 104 947 m 216 1157 q 261 1138 242 1157 q 281 1092 281 1119 q 262 1046 281 1065 q 218 1027 244 1027 q 172 1047 191 1027 q 153 1093 153 1066 q 171 1138 153 1120 q 216 1157 190 1157 m 477 1157 q 523 1138 503 1157 q 542 1092 542 1119 q 524 1046 542 1065 q 479 1027 505 1027 q 433 1047 452 1027 q 414 1093 414 1066 q 432 1138 414 1120 q 477 1157 451 1157 z "},"È":{"ha":694,"x_min":104,"x_max":654,"o":"m 104 947 l 642 947 l 642 827 l 240 827 l 240 538 l 628 538 l 628 416 l 240 416 l 240 122 l 654 122 l 654 1 l 104 1 l 104 947 m 337 1221 l 431 1017 l 355 1017 l 199 1221 l 337 1221 z "},"Í":{"ha":347,"x_min":106,"x_max":361,"o":"m 106 947 l 241 947 l 241 0 l 106 0 l 106 947 m 361 1221 l 208 1017 l 132 1017 l 224 1221 l 361 1221 z "},"Î":{"ha":347,"x_min":-11,"x_max":376,"o":"m 106 947 l 241 947 l 241 0 l 106 0 l 106 947 m 245 1227 l 376 1017 l 300 1017 l 178 1137 l 62 1017 l -11 1017 l 116 1227 l 245 1227 z "},"Ï":{"ha":347,"x_min":-16,"x_max":374,"o":"m 106 947 l 241 947 l 241 0 l 106 0 l 106 947 m 47 1157 q 93 1138 74 1157 q 113 1092 113 1119 q 94 1046 113 1065 q 50 1027 76 1027 q 3 1047 22 1027 q -16 1093 -16 1066 q 3 1138 -16 1120 q 47 1157 22 1157 m 309 1157 q 354 1138 335 1157 q 374 1092 374 1119 q 355 1046 374 1065 q 311 1027 337 1027 q 264 1047 283 1027 q 245 1093 245 1066 q 264 1138 245 1120 q 309 1157 283 1157 z "},"Ì":{"ha":347,"x_min":1,"x_max":241,"o":"m 106 947 l 241 947 l 241 0 l 106 0 l 106 947 m 140 1221 l 233 1017 l 157 1017 l 1 1221 l 140 1221 z "},"Ó":{"ha":1143,"x_min":62,"x_max":1082,"o":"m 570 961 q 936 822 789 961 q 1082 473 1082 683 q 934 126 1082 264 q 562 -11 787 -11 q 205 126 348 -11 q 62 471 62 264 q 206 822 62 683 q 570 961 350 961 m 575 832 q 308 730 412 832 q 203 471 203 629 q 308 216 203 317 q 571 114 413 114 q 836 218 730 114 q 942 476 942 321 q 836 729 942 627 q 575 832 730 832 m 707 1221 l 554 1017 l 478 1017 l 570 1221 l 707 1221 z "},"Ô":{"ha":1143,"x_min":62,"x_max":1082,"o":"m 570 961 q 936 822 789 961 q 1082 473 1082 683 q 934 126 1082 264 q 562 -11 787 -11 q 205 126 348 -11 q 62 471 62 264 q 206 822 62 683 q 570 961 350 961 m 575 832 q 308 730 412 832 q 203 471 203 629 q 308 216 203 317 q 571 114 413 114 q 836 218 730 114 q 942 476 942 321 q 836 729 942 627 q 575 832 730 832 m 612 1227 l 743 1017 l 667 1017 l 545 1137 l 429 1017 l 356 1017 l 483 1227 l 612 1227 z "},"Ò":{"ha":1143,"x_min":62,"x_max":1082,"o":"m 570 961 q 936 822 789 961 q 1082 473 1082 683 q 934 126 1082 264 q 562 -11 787 -11 q 205 126 348 -11 q 62 471 62 264 q 206 822 62 683 q 570 961 350 961 m 575 832 q 308 730 412 832 q 203 471 203 629 q 308 216 203 317 q 571 114 413 114 q 836 218 730 114 q 942 476 942 321 q 836 729 942 627 q 575 832 730 832 m 548 1221 l 642 1017 l 566 1017 l 410 1221 l 548 1221 z "},"Ú":{"ha":983,"x_min":85,"x_max":900,"o":"m 764 947 l 900 947 l 900 410 q 884 245 900 300 q 845 152 868 189 q 787 86 821 115 q 493 -11 675 -11 q 196 85 308 -11 q 139 152 162 115 q 100 243 115 189 q 85 411 85 296 l 85 947 l 221 947 l 221 410 q 252 224 221 276 q 345 140 282 172 q 492 109 407 109 q 688 172 612 109 q 746 252 728 205 q 764 410 764 298 l 764 947 m 652 1221 l 499 1017 l 423 1017 l 515 1221 l 652 1221 z "},"Û":{"ha":983,"x_min":85,"x_max":900,"o":"m 764 947 l 900 947 l 900 410 q 884 245 900 300 q 845 152 868 189 q 787 86 821 115 q 493 -11 675 -11 q 196 85 308 -11 q 139 152 162 115 q 100 243 115 189 q 85 411 85 296 l 85 947 l 221 947 l 221 410 q 252 224 221 276 q 345 140 282 172 q 492 109 407 109 q 688 172 612 109 q 746 252 728 205 q 764 410 764 298 l 764 947 m 549 1227 l 680 1017 l 604 1017 l 482 1137 l 366 1017 l 293 1017 l 420 1227 l 549 1227 z "},"Ù":{"ha":983,"x_min":85,"x_max":900,"o":"m 764 947 l 900 947 l 900 410 q 884 245 900 300 q 845 152 868 189 q 787 86 821 115 q 493 -11 675 -11 q 196 85 308 -11 q 139 152 162 115 q 100 243 115 189 q 85 411 85 296 l 85 947 l 221 947 l 221 410 q 252 224 221 276 q 345 140 282 172 q 492 109 407 109 q 688 172 612 109 q 746 252 728 205 q 764 410 764 298 l 764 947 m 452 1221 l 546 1017 l 470 1017 l 314 1221 l 452 1221 z "},"ı":{"ha":304,"x_min":90,"x_max":214,"o":"m 90 624 l 214 624 l 214 0 l 90 0 l 90 624 z "},"ˆ":{"ha":463,"x_min":38,"x_max":425,"o":"m 294 968 l 425 758 l 349 758 l 227 878 l 111 758 l 38 758 l 165 968 l 294 968 z "},"˜":{"ha":463,"x_min":28,"x_max":435,"o":"m 435 947 q 397 819 435 865 q 326 783 369 783 q 226 810 289 783 q 131 838 163 838 q 100 824 113 838 q 85 783 87 810 l 28 783 q 67 911 39 879 q 139 943 96 943 q 267 907 178 943 q 332 889 313 889 q 365 902 351 889 q 382 947 378 916 l 435 947 z "},"ˉ":{"ha":463,"x_min":2,"x_max":461,"o":"m 461 908 l 461 807 l 2 807 l 2 908 l 461 908 z "},"˘":{"ha":463,"x_min":35,"x_max":428,"o":"m 428 947 q 360 813 412 858 q 231 768 309 768 q 103 815 156 768 q 35 947 50 861 l 127 947 q 165 882 138 903 q 234 861 191 861 q 298 881 273 861 q 334 947 323 901 l 428 947 z "},"˙":{"ha":463,"x_min":150,"x_max":315,"o":"m 232 920 q 291 896 267 920 q 315 838 315 872 q 291 781 315 804 q 232 758 267 758 q 174 781 197 758 q 150 838 150 804 q 174 896 150 872 q 232 920 197 920 z "},"˚":{"ha":463,"x_min":103,"x_max":360,"o":"m 233 1015 q 322 978 285 1015 q 360 887 360 941 q 322 795 360 833 q 231 758 285 758 q 141 795 178 758 q 103 886 103 833 q 141 978 103 940 q 233 1015 180 1015 m 229 960 q 174 940 195 960 q 153 886 153 919 q 176 830 153 853 q 231 808 199 808 q 287 830 264 808 q 310 884 310 852 q 287 938 310 916 q 229 960 264 960 z "},"¸":{"ha":463,"x_min":140,"x_max":358,"o":"m 290 11 l 280 -22 q 337 -56 317 -31 q 358 -113 358 -81 q 317 -201 358 -165 q 184 -237 275 -237 q 140 -234 159 -237 l 140 -157 q 184 -160 175 -160 q 244 -145 222 -160 q 257 -122 257 -136 q 243 -95 257 -106 q 192 -84 229 -84 q 176 -86 184 -84 l 211 11 l 290 11 z "},"˝":{"ha":463,"x_min":2,"x_max":461,"o":"m 239 964 l 77 761 l 2 761 l 99 964 l 239 964 m 461 964 l 300 761 l 224 761 l 322 964 l 461 964 z "},"˛":{"ha":463,"x_min":127,"x_max":370,"o":"m 370 -133 l 370 -226 q 276 -247 321 -247 q 167 -210 207 -247 q 127 -119 127 -174 q 190 13 127 -52 l 282 13 q 233 -85 233 -54 q 253 -129 233 -109 q 299 -148 273 -148 q 370 -133 317 -148 z "},"ˇ":{"ha":463,"x_min":15,"x_max":449,"o":"m 449 968 l 295 758 l 167 758 l 15 968 l 92 968 l 232 850 l 372 968 l 449 968 z "},"Ł":{"ha":681,"x_min":-20,"x_max":667,"o":"m 103 947 l 239 947 l 239 586 l 431 743 l 431 624 l 239 458 l 239 127 l 667 127 l 667 0 l 103 0 l 103 347 l -20 249 l -20 375 l 103 476 l 103 947 z "},"ł":{"ha":304,"x_min":-17,"x_max":326,"o":"m 92 947 l 215 947 l 215 582 l 326 669 l 326 559 l 215 469 l 215 0 l 92 0 l 92 370 l -17 285 l -17 395 l 92 484 l 92 947 z "},"Š":{"ha":636,"x_min":57,"x_max":591,"o":"m 339 397 l 236 460 q 98 576 139 519 q 57 708 57 633 q 135 890 57 820 q 336 960 212 960 q 554 893 455 960 l 554 739 q 334 838 452 838 q 224 807 267 838 q 182 728 182 776 q 213 648 182 685 q 314 570 244 610 l 418 509 q 591 245 591 406 q 515 60 591 132 q 317 -11 439 -11 q 61 75 176 -11 l 61 248 q 315 109 171 109 q 421 144 379 109 q 464 233 464 180 q 339 397 464 320 m 536 1227 l 382 1017 l 254 1017 l 102 1227 l 180 1227 l 319 1109 l 459 1227 l 536 1227 z "},"š":{"ha":534,"x_min":51,"x_max":485,"o":"m 57 45 l 57 178 q 164 118 109 141 q 256 96 218 96 q 322 115 294 96 q 350 160 350 134 q 332 205 350 187 q 254 257 314 223 q 98 371 135 323 q 61 473 61 418 q 117 591 61 545 q 261 636 173 636 q 449 585 353 636 l 449 463 q 269 529 339 529 q 211 514 233 529 q 189 473 189 498 q 209 432 189 452 q 279 385 229 412 l 323 359 q 479 164 479 271 q 419 38 479 87 q 265 -11 359 -11 q 166 1 210 -11 q 57 45 123 13 m 485 968 l 331 758 l 203 758 l 51 968 l 128 968 l 268 850 l 408 968 l 485 968 z "},"Ž":{"ha":897,"x_min":17,"x_max":872,"o":"m 56 949 l 872 949 l 267 121 l 872 121 l 872 0 l 17 0 l 624 828 l 56 828 l 56 949 m 665 1227 l 511 1017 l 383 1017 l 231 1227 l 309 1227 l 448 1109 l 588 1227 l 665 1227 z "},"ž":{"ha":579,"x_min":16,"x_max":562,"o":"m 29 624 l 562 624 l 232 115 l 562 115 l 562 0 l 16 0 l 343 509 l 29 509 l 29 624 m 507 968 l 353 758 l 225 758 l 73 968 l 151 968 l 290 850 l 430 968 l 507 968 z "},"¦":{"ha":361,"x_min":127,"x_max":234,"o":"m 127 475 l 127 947 l 234 947 l 234 475 l 127 475 m 127 -320 l 127 244 l 234 244 l 234 -320 l 127 -320 z "},"­":{"ha":448,"x_min":56,"x_max":393,"o":"m 393 373 l 393 241 l 56 241 l 56 373 l 393 373 z "},"¯":{"ha":766,"x_min":-24,"x_max":790,"o":"m -24 1015 l -24 1104 l 790 1104 l 790 1015 l -24 1015 z "},"Ð":{"ha":1042,"x_min":-4,"x_max":977,"o":"m 106 1 l 106 429 l -4 429 l -4 518 l 106 518 l 106 947 l 425 947 q 731 889 618 947 q 910 719 844 831 q 977 473 977 606 q 940 292 977 378 q 836 139 903 205 q 675 37 766 71 q 576 8 621 16 q 406 1 532 1 l 106 1 m 510 429 l 241 429 l 241 122 l 415 122 q 573 136 517 122 q 667 171 629 150 q 736 224 705 193 q 836 481 836 326 q 733 730 836 633 q 646 789 695 766 q 553 819 597 812 q 411 827 509 827 l 241 827 l 241 518 l 510 518 l 510 429 z "},"ð":{"ha":782,"x_min":56,"x_max":730,"o":"m 183 872 l 249 958 q 339 927 310 939 q 419 888 368 916 l 571 958 l 604 884 l 500 832 q 613 715 578 766 q 673 610 648 665 q 730 355 730 489 q 638 87 730 185 q 386 -11 546 -11 q 151 80 245 -11 q 56 307 56 172 q 153 543 56 449 q 396 636 250 636 q 468 630 439 636 q 541 604 496 624 q 473 703 499 674 q 386 779 448 732 l 186 686 l 154 762 l 300 831 q 183 872 242 859 m 608 314 q 549 466 608 408 q 393 525 489 525 q 238 462 301 525 q 175 307 175 399 q 237 158 175 217 q 395 100 300 100 q 550 158 492 100 q 608 314 608 217 z "},"Ý":{"ha":839,"x_min":0,"x_max":839,"o":"m 675 947 l 839 947 l 489 501 l 489 0 l 350 0 l 350 501 l 0 947 l 164 947 l 418 621 l 675 947 m 571 1221 l 418 1017 l 342 1017 l 433 1221 l 571 1221 z "},"ý":{"ha":608,"x_min":0,"x_max":608,"o":"m 469 624 l 608 624 l 167 -318 l 29 -318 l 241 134 l 0 624 l 140 624 l 309 272 l 469 624 m 456 962 l 302 759 l 227 759 l 318 962 l 456 962 z "},"Þ":{"ha":708,"x_min":97,"x_max":694,"o":"m 97 0 l 97 947 l 233 947 l 233 743 l 397 743 q 614 670 534 743 q 694 472 694 596 q 613 279 694 354 q 505 222 568 239 q 334 205 442 205 l 233 205 l 233 0 l 97 0 m 374 622 l 233 622 l 233 326 l 382 326 q 509 365 465 326 q 554 476 554 404 q 374 622 554 622 z "},"þ":{"ha":694,"x_min":79,"x_max":647,"o":"m 79 -318 l 79 947 l 205 947 l 205 624 l 296 624 q 554 541 462 624 q 647 310 647 458 q 560 79 647 170 q 338 -11 473 -11 q 205 16 278 -11 l 205 -318 l 79 -318 m 293 509 l 205 509 l 205 125 q 325 96 262 96 q 467 156 412 96 q 522 311 522 216 q 496 419 522 372 q 425 487 470 466 q 293 509 380 509 z "},"×":{"ha":811,"x_min":109,"x_max":700,"o":"m 109 278 l 323 492 l 109 704 l 192 787 l 405 574 l 618 787 l 700 704 l 488 492 l 700 278 l 618 196 l 405 409 l 192 196 l 109 278 z "},"¹":{"ha":449,"x_min":176,"x_max":272,"o":"m 176 954 l 272 954 l 272 461 l 176 461 l 176 954 z "},"²":{"ha":449,"x_min":39,"x_max":410,"o":"m 201 536 l 410 536 l 410 461 l 39 461 l 39 471 l 43 475 q 68 501 49 482 q 212 664 153 588 q 272 795 272 741 q 248 858 272 835 q 183 882 224 882 q 52 802 113 882 l 52 909 q 193 960 120 960 q 320 916 270 960 q 370 806 370 873 q 359 748 370 779 q 331 692 348 718 q 210 546 314 666 l 201 536 z "},"³":{"ha":449,"x_min":64,"x_max":375,"o":"m 158 751 l 167 751 q 271 821 271 751 q 247 869 271 851 q 182 888 222 888 q 78 860 142 888 l 78 936 q 192 960 130 960 q 319 923 272 960 q 366 825 366 887 q 300 721 366 755 q 375 606 375 692 q 324 497 375 540 q 195 454 273 454 q 64 485 131 454 l 64 572 q 195 532 134 532 q 254 551 232 532 q 275 603 275 570 q 252 656 275 638 q 175 677 229 673 l 158 679 l 158 751 z "},"½":{"ha":1173,"x_min":175,"x_max":1135,"o":"m 175 954 l 271 954 l 271 461 l 175 461 l 175 954 m 829 960 l 923 960 l 292 -36 l 199 -36 l 829 960 m 926 76 l 1135 76 l 1135 1 l 764 1 l 764 10 l 768 14 q 793 41 774 22 q 937 204 878 127 q 997 335 997 280 q 973 398 997 374 q 908 421 949 421 q 777 341 838 421 l 777 449 q 918 499 845 499 q 1045 456 995 499 q 1095 345 1095 412 q 1084 288 1095 319 q 1056 231 1073 257 q 935 85 1039 205 l 926 76 z "},"¼":{"ha":1173,"x_min":175,"x_max":1139,"o":"m 175 954 l 271 954 l 271 461 l 175 461 l 175 954 m 870 960 l 964 960 l 334 -36 l 241 -36 l 870 960 m 1031 500 l 1076 500 l 1076 228 l 1139 228 l 1139 160 l 1076 160 l 1076 0 l 982 0 l 982 160 l 746 160 l 746 195 l 1031 500 m 982 228 l 982 345 l 873 228 l 982 228 z "},"¾":{"ha":1173,"x_min":62,"x_max":1139,"o":"m 157 751 l 165 751 q 269 821 269 751 q 245 869 269 851 q 180 888 221 888 q 77 860 140 888 l 77 936 q 191 960 129 960 q 317 923 271 960 q 364 825 364 887 q 298 721 364 755 q 374 606 374 692 q 322 497 374 540 q 193 454 271 454 q 62 485 130 454 l 62 572 q 193 532 132 532 q 252 551 231 532 q 274 603 274 570 q 251 656 274 638 q 174 677 227 673 l 157 679 l 157 751 m 854 960 l 948 960 l 317 -36 l 224 -36 l 854 960 m 1031 500 l 1076 500 l 1076 228 l 1139 228 l 1139 160 l 1076 160 l 1076 0 l 982 0 l 982 160 l 746 160 l 746 195 l 1031 500 m 982 228 l 982 345 l 873 228 l 982 228 z "},"·":{"ha":463,"x_min":357,"x_max":503,"o":"m 503 488 q 481 437 503 458 q 430 416 460 416 q 378 437 399 416 q 357 490 357 459 q 378 541 357 519 q 430 562 399 562 q 481 541 460 562 q 503 488 503 519 z "},"Ă":{"ha":926,"x_min":0,"x_max":926,"o":"m 407 953 l 503 953 l 926 0 l 787 0 l 661 281 l 258 281 l 139 0 l 0 0 l 407 953 m 606 401 l 453 745 l 311 401 l 606 401 m 659 1196 q 592 1062 643 1107 q 462 1017 541 1017 q 334 1064 387 1017 q 266 1196 281 1110 l 359 1196 q 396 1131 370 1152 q 465 1110 422 1110 q 529 1130 505 1110 q 565 1196 554 1150 l 659 1196 z "},"ă":{"ha":593,"x_min":37,"x_max":571,"o":"m 479 375 l 479 110 q 501 78 479 78 q 571 111 524 78 l 571 36 q 504 -1 529 9 q 450 -11 478 -11 q 357 52 371 -11 q 189 -9 278 -9 q 81 34 124 -9 q 37 142 37 77 q 80 247 37 201 q 200 321 122 294 l 358 375 l 358 408 q 245 521 358 521 q 49 416 144 521 l 49 551 q 256 636 121 636 q 418 583 357 636 q 454 538 438 566 q 475 482 471 510 q 479 375 479 454 m 358 123 l 358 309 l 275 277 q 186 226 212 252 q 160 163 160 201 q 185 100 160 124 q 249 75 210 75 q 358 123 308 75 m 456 947 q 389 813 440 858 q 259 768 338 768 q 132 815 184 768 q 63 947 79 861 l 156 947 q 193 882 167 903 q 262 861 220 861 q 327 881 302 861 q 362 947 351 901 l 456 947 z "},"Ą":{"ha":926,"x_min":0,"x_max":979,"o":"m 979 -134 l 979 -227 q 878 -248 929 -248 q 777 -211 817 -248 q 737 -117 737 -174 q 787 0 737 -57 l 661 279 l 258 279 l 139 0 l 0 0 l 407 953 l 503 953 l 926 0 l 882 0 q 843 -85 843 -53 q 864 -130 843 -111 q 914 -149 885 -149 q 979 -134 925 -149 m 453 745 l 311 401 l 606 401 l 453 745 z "},"ą":{"ha":593,"x_min":37,"x_max":590,"o":"m 571 111 l 571 36 q 488 -8 547 20 q 456 -85 456 -45 q 474 -130 456 -111 q 522 -149 492 -149 q 590 -134 545 -149 l 590 -227 q 497 -248 545 -248 q 389 -210 430 -248 q 349 -117 349 -173 q 397 -1 349 -57 q 358 52 367 16 q 191 -12 275 -12 q 82 33 126 -12 q 37 142 37 79 q 67 233 37 195 q 146 295 96 271 q 358 375 195 319 l 358 410 q 248 519 358 519 q 50 416 146 519 l 50 551 q 257 636 122 636 q 375 613 326 636 q 452 543 424 590 q 481 375 481 496 l 481 110 q 503 78 481 78 q 571 111 522 78 m 358 125 l 358 309 q 224 253 251 267 q 179 214 197 238 q 161 163 161 191 q 187 100 161 125 q 250 75 212 75 q 358 125 309 75 z "},"Ć":{"ha":983,"x_min":68,"x_max":921,"o":"m 921 220 l 921 71 q 576 -11 772 -11 q 307 53 418 -11 q 132 229 197 117 q 68 471 68 340 q 215 819 68 677 q 579 960 363 960 q 911 882 728 960 l 911 736 q 586 831 745 831 q 316 728 423 831 q 208 471 208 625 q 314 214 208 315 q 585 114 420 114 q 921 220 757 114 m 715 1221 l 562 1017 l 486 1017 l 577 1221 l 715 1221 z "},"ć":{"ha":608,"x_min":53,"x_max":555,"o":"m 555 146 l 555 24 q 374 -11 463 -11 q 140 76 227 -11 q 53 309 53 163 q 138 546 53 456 q 361 636 222 636 q 447 627 409 636 q 542 593 486 618 l 542 461 q 368 521 448 521 q 231 462 285 521 q 178 313 178 404 q 236 161 178 217 q 392 104 294 104 q 555 146 463 104 m 492 962 l 339 759 l 263 759 l 355 962 l 492 962 z "},"Č":{"ha":983,"x_min":68,"x_max":921,"o":"m 921 220 l 921 71 q 576 -11 772 -11 q 307 53 418 -11 q 132 229 197 117 q 68 471 68 340 q 215 819 68 677 q 579 960 363 960 q 911 882 728 960 l 911 736 q 586 831 745 831 q 316 728 423 831 q 208 471 208 625 q 314 214 208 315 q 585 114 420 114 q 921 220 757 114 m 796 1227 l 642 1017 l 514 1017 l 362 1227 l 439 1227 l 579 1109 l 719 1227 l 796 1227 z "},"č":{"ha":608,"x_min":53,"x_max":569,"o":"m 555 146 l 555 24 q 374 -11 463 -11 q 140 76 227 -11 q 53 309 53 163 q 138 546 53 456 q 361 636 222 636 q 447 627 409 636 q 542 593 486 618 l 542 461 q 368 521 448 521 q 231 462 285 521 q 178 313 178 404 q 236 161 178 217 q 392 104 294 104 q 555 146 463 104 m 569 968 l 415 758 l 287 758 l 135 968 l 212 968 l 352 850 l 492 968 l 569 968 z "},"Ď":{"ha":1042,"x_min":106,"x_max":977,"o":"m 106 1 l 106 947 l 425 947 q 731 889 618 947 q 910 719 844 831 q 977 473 977 606 q 940 292 977 378 q 836 139 903 205 q 675 37 766 71 q 576 8 621 16 q 406 1 532 1 l 106 1 m 411 827 l 241 827 l 241 122 l 415 122 q 573 136 517 122 q 667 171 629 150 q 736 224 705 193 q 836 481 836 326 q 733 730 836 633 q 646 789 695 766 q 553 819 597 812 q 411 827 509 827 m 686 1227 l 532 1017 l 404 1017 l 252 1227 l 330 1227 l 469 1109 l 609 1227 l 686 1227 z "},"ď":{"ha":825,"x_min":61,"x_max":873,"o":"m 504 947 l 628 947 l 628 0 l 364 0 q 143 87 226 0 q 61 322 61 175 q 148 549 61 460 q 368 637 234 637 q 504 611 431 637 l 504 947 m 504 106 l 504 501 q 387 530 446 530 q 240 470 295 530 q 186 307 186 410 q 233 159 186 211 q 294 117 262 127 q 408 106 326 106 l 504 106 m 709 612 l 709 637 q 767 777 766 688 q 695 866 695 799 q 720 929 695 902 q 779 956 744 956 q 848 917 823 956 q 873 825 873 878 q 831 695 873 756 q 709 612 789 635 z "},"Đ":{"ha":1042,"x_min":-5,"x_max":977,"o":"m 105 429 l -5 429 l -5 518 l 105 518 l 105 947 l 425 947 q 701 904 588 947 q 895 743 814 861 q 977 474 977 625 q 926 260 977 357 q 790 100 875 163 q 618 18 705 37 q 405 0 530 0 l 105 0 l 105 429 m 241 429 l 241 123 l 416 123 q 663 168 581 123 q 790 298 745 213 q 836 480 836 382 q 798 644 836 570 q 693 762 760 718 q 567 816 627 806 q 411 827 506 827 l 241 827 l 241 518 l 509 518 l 509 429 l 241 429 z "},"đ":{"ha":709,"x_min":61,"x_max":736,"o":"m 628 819 l 736 819 l 736 747 l 628 747 l 628 0 l 363 0 q 139 93 216 0 q 61 321 61 186 q 150 550 61 463 q 368 636 239 636 q 503 612 433 636 l 503 747 l 353 747 l 353 819 l 503 819 l 503 947 l 628 947 l 628 819 m 503 502 q 387 531 449 531 q 242 472 298 531 q 186 307 186 412 q 216 182 186 230 q 286 119 246 134 q 408 104 326 104 l 503 104 l 503 502 z "},"Ę":{"ha":694,"x_min":104,"x_max":654,"o":"m 654 -134 l 654 -227 q 553 -248 604 -248 q 452 -211 492 -248 q 412 -117 412 -174 q 463 0 412 -57 l 104 0 l 104 947 l 642 947 l 642 825 l 240 825 l 240 539 l 628 539 l 628 416 l 240 416 l 240 122 l 654 122 l 654 0 l 557 0 q 518 -85 518 -53 q 539 -130 518 -111 q 589 -149 559 -149 q 654 -134 599 -149 z "},"ę":{"ha":665,"x_min":56,"x_max":618,"o":"m 603 -134 l 603 -227 q 510 -248 557 -248 q 402 -211 443 -248 q 361 -117 361 -174 q 401 -11 361 -65 q 383 -12 397 -11 l 364 -12 q 141 80 227 -12 q 56 315 56 173 q 137 548 56 460 q 347 636 218 636 q 544 549 469 636 q 618 317 618 462 l 618 301 l 179 301 q 240 160 184 214 q 382 106 296 106 q 607 182 505 106 l 607 61 q 515 12 582 45 q 467 -85 467 -46 q 487 -131 467 -113 q 533 -149 507 -149 q 603 -134 570 -149 m 182 375 l 496 375 q 346 529 486 529 q 182 375 208 529 z "},"Ě":{"ha":694,"x_min":104,"x_max":654,"o":"m 104 947 l 642 947 l 642 827 l 240 827 l 240 538 l 628 538 l 628 416 l 240 416 l 240 122 l 654 122 l 654 1 l 104 1 l 104 947 m 597 1227 l 443 1017 l 315 1017 l 163 1227 l 240 1227 l 380 1109 l 519 1227 l 597 1227 z "},"ě":{"ha":665,"x_min":57,"x_max":619,"o":"m 619 301 l 180 301 q 240 159 185 212 q 383 106 296 106 q 608 182 505 106 l 608 61 q 495 7 551 23 q 364 -9 439 -9 q 197 33 261 -9 q 95 148 134 76 q 57 315 57 220 q 138 547 57 458 q 347 636 218 636 q 545 549 471 636 q 619 317 619 463 l 619 301 m 183 375 l 497 375 q 453 489 492 449 q 347 529 414 529 q 238 489 281 529 q 183 375 196 449 m 570 968 l 416 758 l 288 758 l 136 968 l 213 968 l 353 850 l 492 968 l 570 968 z "},"Ĺ":{"ha":681,"x_min":104,"x_max":667,"o":"m 104 947 l 240 947 l 240 123 l 667 123 l 667 0 l 104 0 l 104 947 m 547 1221 l 394 1017 l 318 1017 l 410 1221 l 547 1221 z "},"ĺ":{"ha":304,"x_min":75,"x_max":304,"o":"m 90 947 l 214 947 l 214 0 l 90 0 l 90 947 m 304 1221 l 151 1017 l 75 1017 l 167 1221 l 304 1221 z "},"Ľ":{"ha":681,"x_min":104,"x_max":667,"o":"m 104 947 l 240 947 l 240 123 l 667 123 l 667 0 l 104 0 l 104 947 m 612 1227 l 458 1017 l 330 1017 l 178 1227 l 255 1227 l 395 1109 l 534 1227 l 612 1227 z "},"ľ":{"ha":405,"x_min":90,"x_max":455,"o":"m 90 947 l 214 947 l 214 0 l 90 0 l 90 947 m 292 612 l 292 637 q 349 777 349 688 q 277 866 277 799 q 302 929 277 902 q 361 956 326 956 q 430 917 405 956 q 455 825 455 878 q 413 695 455 756 q 292 612 371 635 z "},"Ń":{"ha":1084,"x_min":109,"x_max":986,"o":"m 857 947 l 986 947 l 986 0 l 869 0 l 236 729 l 236 0 l 109 0 l 109 947 l 218 947 l 857 212 l 857 947 m 710 1221 l 557 1017 l 481 1017 l 572 1221 l 710 1221 z "},"ń":{"ha":694,"x_min":85,"x_max":610,"o":"m 211 624 l 211 545 q 399 636 294 636 q 507 606 457 636 q 584 523 557 576 q 610 357 610 471 l 610 0 l 486 0 l 486 355 q 457 492 486 451 q 359 533 428 533 q 211 446 272 533 l 211 0 l 85 0 l 85 624 l 211 624 m 500 962 l 347 759 l 271 759 l 362 962 l 500 962 z "},"Ň":{"ha":1084,"x_min":109,"x_max":986,"o":"m 857 947 l 986 947 l 986 0 l 869 0 l 236 729 l 236 0 l 109 0 l 109 947 l 218 947 l 857 212 l 857 947 m 764 1227 l 610 1017 l 481 1017 l 330 1227 l 407 1227 l 547 1109 l 686 1227 l 764 1227 z "},"ň":{"ha":694,"x_min":85,"x_max":610,"o":"m 211 624 l 211 545 q 399 636 294 636 q 507 606 457 636 q 584 523 557 576 q 610 357 610 471 l 610 0 l 486 0 l 486 355 q 457 492 486 451 q 359 533 428 533 q 211 446 272 533 l 211 0 l 85 0 l 85 624 l 211 624 m 564 968 l 410 758 l 282 758 l 130 968 l 208 968 l 347 850 l 487 968 l 564 968 z "},"Ő":{"ha":1143,"x_min":62,"x_max":1082,"o":"m 570 961 q 936 822 789 961 q 1082 473 1082 683 q 934 126 1082 264 q 562 -11 787 -11 q 205 126 348 -11 q 62 471 62 264 q 206 822 62 683 q 570 961 350 961 m 575 832 q 308 730 412 832 q 203 471 203 629 q 308 216 203 317 q 571 114 413 114 q 836 218 730 114 q 942 476 942 321 q 836 729 942 627 q 575 832 730 832 m 641 1221 l 479 1017 l 404 1017 l 500 1221 l 641 1221 m 863 1221 l 702 1017 l 625 1017 l 724 1221 l 863 1221 z "},"ő":{"ha":766,"x_min":52,"x_max":717,"o":"m 386 625 q 623 533 528 625 q 717 302 717 441 q 621 78 717 168 q 380 -11 526 -11 q 146 80 240 -11 q 52 306 52 170 q 147 534 52 443 q 386 625 242 625 m 379 514 q 233 456 290 514 q 176 307 176 397 q 235 161 176 218 q 385 104 293 104 q 533 162 475 104 q 591 309 591 219 q 531 456 591 397 q 379 514 471 514 m 461 964 l 299 761 l 224 761 l 321 964 l 461 964 m 683 964 l 522 761 l 446 761 l 544 964 l 683 964 z "},"Ŕ":{"ha":839,"x_min":109,"x_max":839,"o":"m 109 0 l 109 947 l 346 947 q 574 876 490 947 q 659 684 659 805 q 617 541 659 601 q 498 450 576 480 q 587 369 544 420 q 709 189 631 317 q 789 68 759 109 l 839 0 l 677 0 l 636 62 q 628 74 634 66 l 602 111 l 559 180 l 514 254 q 437 347 472 313 q 374 397 402 382 q 279 412 346 412 l 244 412 l 244 0 l 109 0 m 285 832 l 244 832 l 244 533 l 296 533 q 437 551 399 533 q 497 604 475 568 q 518 685 518 640 q 494 766 518 730 q 428 817 471 802 q 285 832 385 832 m 510 1221 l 357 1017 l 281 1017 l 372 1221 l 510 1221 z "},"ŕ":{"ha":550,"x_min":96,"x_max":551,"o":"m 220 624 l 220 481 l 227 492 q 406 636 316 636 q 551 566 475 636 l 486 457 q 367 518 422 518 q 263 461 307 518 q 220 326 220 404 l 220 0 l 96 0 l 96 624 l 220 624 m 475 962 l 322 759 l 246 759 l 338 962 l 475 962 z "},"Ř":{"ha":839,"x_min":109,"x_max":839,"o":"m 109 0 l 109 947 l 346 947 q 574 876 490 947 q 659 684 659 805 q 617 541 659 601 q 498 450 576 480 q 587 369 544 420 q 709 189 631 317 q 789 68 759 109 l 839 0 l 677 0 l 636 62 q 628 74 634 66 l 602 111 l 559 180 l 514 254 q 437 347 472 313 q 374 397 402 382 q 279 412 346 412 l 244 412 l 244 0 l 109 0 m 285 832 l 244 832 l 244 533 l 296 533 q 437 551 399 533 q 497 604 475 568 q 518 685 518 640 q 494 766 518 730 q 428 817 471 802 q 285 832 385 832 m 594 1227 l 440 1017 l 312 1017 l 160 1227 l 237 1227 l 377 1109 l 517 1227 l 594 1227 z "},"ř":{"ha":550,"x_min":96,"x_max":551,"o":"m 220 624 l 220 481 l 227 492 q 406 636 316 636 q 551 566 475 636 l 486 457 q 367 518 422 518 q 263 461 307 518 q 220 326 220 404 l 220 0 l 96 0 l 96 624 l 220 624 m 541 968 l 387 758 l 258 758 l 106 968 l 184 968 l 323 850 l 463 968 l 541 968 z "},"Ś":{"ha":636,"x_min":57,"x_max":591,"o":"m 339 397 l 236 460 q 98 576 139 519 q 57 708 57 633 q 135 890 57 820 q 336 960 212 960 q 554 893 455 960 l 554 739 q 334 838 452 838 q 224 807 267 838 q 182 728 182 776 q 213 648 182 685 q 314 570 244 610 l 418 509 q 591 245 591 406 q 515 60 591 132 q 317 -11 439 -11 q 61 75 176 -11 l 61 248 q 315 109 171 109 q 421 144 379 109 q 464 233 464 180 q 339 397 464 320 m 488 1221 l 334 1017 l 258 1017 l 350 1221 l 488 1221 z "},"ś":{"ha":534,"x_min":57,"x_max":479,"o":"m 57 45 l 57 178 q 164 118 109 141 q 256 96 218 96 q 322 115 294 96 q 350 160 350 134 q 332 205 350 187 q 254 257 314 223 q 98 371 135 323 q 61 473 61 418 q 117 591 61 545 q 261 636 173 636 q 449 585 353 636 l 449 463 q 269 529 339 529 q 211 514 233 529 q 189 473 189 498 q 209 432 189 452 q 279 385 229 412 l 323 359 q 479 164 479 271 q 419 38 479 87 q 265 -11 359 -11 q 166 1 210 -11 q 57 45 123 13 m 420 962 l 267 759 l 191 759 l 283 962 l 420 962 z "},"Ţ":{"ha":839,"x_min":24,"x_max":815,"o":"m 24 949 l 815 949 l 815 828 l 485 828 l 485 0 l 349 0 l 349 828 l 24 828 l 24 949 m 355 -392 l 355 -366 q 412 -227 412 -315 q 340 -138 340 -205 q 365 -75 340 -102 q 424 -47 389 -47 q 493 -86 468 -47 q 518 -178 518 -125 q 476 -308 518 -248 q 355 -392 434 -369 z "},"ţ":{"ha":463,"x_min":0,"x_max":461,"o":"m 0 525 l 232 753 l 232 624 l 429 624 l 429 513 l 232 513 l 232 207 q 321 100 232 100 q 461 144 387 100 l 461 29 q 306 -11 390 -11 q 165 39 221 -11 q 136 72 147 54 q 116 121 124 91 q 109 236 109 151 l 109 513 l 0 513 l 0 525 m 222 -392 l 222 -366 q 280 -227 279 -315 q 208 -138 208 -205 q 233 -75 208 -102 q 292 -47 257 -47 q 361 -86 336 -47 q 386 -178 386 -125 q 344 -308 386 -248 q 222 -392 302 -369 z "},"Ť":{"ha":839,"x_min":24,"x_max":815,"o":"m 24 949 l 815 949 l 815 828 l 485 828 l 485 0 l 349 0 l 349 828 l 24 828 l 24 949 m 637 1227 l 483 1017 l 355 1017 l 203 1227 l 280 1227 l 420 1109 l 559 1227 l 637 1227 z "},"ť":{"ha":608,"x_min":0,"x_max":653,"o":"m 0 525 l 232 753 l 232 624 l 429 624 l 429 513 l 232 513 l 232 207 q 321 100 232 100 q 461 144 387 100 l 461 29 q 306 -11 390 -11 q 165 39 221 -11 q 136 72 147 54 q 116 121 124 91 q 109 236 109 151 l 109 513 l 0 513 l 0 525 m 490 612 l 490 637 q 547 777 547 688 q 475 866 475 799 q 500 929 475 902 q 559 956 524 956 q 628 917 603 956 q 653 825 653 878 q 611 695 653 756 q 490 612 569 635 z "},"Ů":{"ha":983,"x_min":85,"x_max":900,"o":"m 764 947 l 900 947 l 900 410 q 884 245 900 300 q 845 152 868 189 q 787 86 821 115 q 493 -11 675 -11 q 196 85 308 -11 q 139 152 162 115 q 100 243 115 189 q 85 411 85 296 l 85 947 l 221 947 l 221 410 q 252 224 221 276 q 345 140 282 172 q 492 109 407 109 q 688 172 612 109 q 746 252 728 205 q 764 410 764 298 l 764 947 m 493 1275 q 583 1238 545 1275 q 621 1147 621 1200 q 583 1055 621 1093 q 492 1017 545 1017 q 401 1055 439 1017 q 363 1145 363 1093 q 402 1237 363 1200 q 493 1275 440 1275 m 490 1220 q 434 1199 455 1220 q 414 1145 414 1179 q 436 1090 414 1113 q 492 1067 459 1067 q 547 1090 524 1067 q 570 1144 570 1112 q 547 1198 570 1176 q 490 1220 524 1220 z "},"ů":{"ha":694,"x_min":85,"x_max":608,"o":"m 485 0 l 485 79 q 395 13 446 37 q 294 -11 345 -11 q 185 19 235 -11 q 110 99 136 48 q 85 267 85 149 l 85 624 l 208 624 l 208 268 q 236 131 208 170 q 335 92 264 92 q 485 178 423 92 l 485 624 l 608 624 l 608 0 l 485 0 m 346 1015 q 436 978 398 1015 q 473 887 473 941 q 436 795 473 833 q 345 758 398 758 q 254 795 292 758 q 216 886 216 833 q 255 978 216 940 q 346 1015 293 1015 m 342 960 q 287 940 308 960 q 267 886 267 919 q 289 830 267 853 q 345 808 312 808 q 400 830 377 808 q 423 884 423 852 q 400 938 423 916 q 342 960 377 960 z "},"Ű":{"ha":983,"x_min":85,"x_max":900,"o":"m 764 947 l 900 947 l 900 410 q 884 245 900 300 q 845 152 868 189 q 787 86 821 115 q 493 -11 675 -11 q 196 85 308 -11 q 139 152 162 115 q 100 243 115 189 q 85 411 85 296 l 85 947 l 221 947 l 221 410 q 252 224 221 276 q 345 140 282 172 q 492 109 407 109 q 688 172 612 109 q 746 252 728 205 q 764 410 764 298 l 764 947 m 573 1221 l 411 1017 l 336 1017 l 433 1221 l 573 1221 m 795 1221 l 634 1017 l 557 1017 l 656 1221 l 795 1221 z "},"ű":{"ha":694,"x_min":85,"x_max":630,"o":"m 485 0 l 485 79 q 395 13 446 37 q 294 -11 345 -11 q 185 19 235 -11 q 110 99 136 48 q 85 267 85 149 l 85 624 l 208 624 l 208 268 q 236 131 208 170 q 335 92 264 92 q 485 178 423 92 l 485 624 l 608 624 l 608 0 l 485 0 m 408 964 l 246 761 l 171 761 l 268 964 l 408 964 m 630 964 l 469 761 l 393 761 l 491 964 l 630 964 z "},"Ź":{"ha":897,"x_min":17,"x_max":872,"o":"m 56 949 l 872 949 l 267 121 l 872 121 l 872 0 l 17 0 l 624 828 l 56 828 l 56 949 m 607 1221 l 454 1017 l 378 1017 l 469 1221 l 607 1221 z "},"ź":{"ha":579,"x_min":16,"x_max":562,"o":"m 29 624 l 562 624 l 232 115 l 562 115 l 562 0 l 16 0 l 343 509 l 29 509 l 29 624 m 441 962 l 288 759 l 212 759 l 304 962 l 441 962 z "},"Ż":{"ha":897,"x_min":17,"x_max":872,"o":"m 56 949 l 872 949 l 267 121 l 872 121 l 872 0 l 17 0 l 624 828 l 56 828 l 56 949 m 444 1179 q 503 1156 478 1179 q 527 1097 527 1132 q 503 1040 527 1063 q 444 1017 479 1017 q 385 1040 409 1017 q 361 1097 361 1063 q 385 1156 361 1132 q 444 1179 409 1179 z "},"ż":{"ha":579,"x_min":16,"x_max":562,"o":"m 29 624 l 562 624 l 232 115 l 562 115 l 562 0 l 16 0 l 343 509 l 29 509 l 29 624 m 305 920 q 364 896 340 920 q 389 838 389 872 q 365 781 389 804 q 305 758 340 758 q 247 781 271 758 q 223 838 223 804 q 247 896 223 872 q 305 920 271 920 z "},"⁄":{"ha":275,"x_min":-225,"x_max":500,"o":"m 500 960 l -132 -37 l -225 -37 l 406 960 l 500 960 z "},"":{"ha":694,"x_min":18,"x_max":602,"o":"m 235 625 l 374 625 l 374 519 l 235 519 l 235 0 l 111 0 l 111 519 l 18 519 l 18 625 l 111 625 l 111 646 q 180 878 111 797 q 375 960 248 960 q 539 907 479 960 q 602 761 600 854 l 485 761 q 440 831 467 810 q 371 852 414 852 q 233 648 233 852 q 235 625 233 637 m 485 625 l 602 625 l 602 0 l 485 0 l 485 625 z "},"":{"ha":694,"x_min":12,"x_max":607,"o":"m 229 625 l 371 625 l 371 519 l 229 519 l 229 0 l 109 0 l 109 519 l 12 519 l 12 625 l 109 625 l 109 656 q 132 817 109 758 q 208 918 155 876 q 338 960 262 960 q 421 947 381 960 l 421 835 q 366 844 386 844 q 260 801 291 844 q 229 653 229 758 l 229 625 m 484 947 l 607 947 l 607 0 l 484 0 l 484 947 z "},"Ş":{"ha":636,"x_min":57,"x_max":591,"o":"m 339 397 l 236 460 q 98 576 139 519 q 57 708 57 633 q 135 890 57 820 q 336 960 212 960 q 554 893 455 960 l 554 739 q 334 838 452 838 q 224 807 267 838 q 182 728 182 776 q 213 648 182 685 q 314 570 244 610 l 418 509 q 591 245 591 406 q 515 60 591 132 q 317 -11 439 -11 q 61 75 176 -11 l 61 248 q 315 109 171 109 q 421 144 379 109 q 464 233 464 180 q 339 397 464 320 m 248 -392 l 248 -366 q 305 -227 304 -315 q 233 -138 233 -205 q 258 -75 233 -102 q 317 -47 282 -47 q 386 -86 361 -47 q 411 -178 411 -125 q 369 -308 411 -248 q 248 -392 327 -369 z "},"ş":{"ha":534,"x_min":57,"x_max":479,"o":"m 57 45 l 57 178 q 164 118 109 141 q 256 96 218 96 q 322 115 294 96 q 350 160 350 134 q 332 205 350 187 q 254 257 314 223 q 98 371 135 323 q 61 473 61 418 q 117 591 61 545 q 261 636 173 636 q 449 585 353 636 l 449 463 q 269 529 339 529 q 211 514 233 529 q 189 473 189 498 q 209 432 189 452 q 279 385 229 412 l 323 359 q 479 164 479 271 q 419 38 479 87 q 265 -11 359 -11 q 166 1 210 -11 q 57 45 123 13 m 196 -392 l 196 -366 q 254 -227 253 -315 q 182 -138 182 -205 q 206 -75 182 -102 q 265 -47 231 -47 q 334 -86 309 -47 q 359 -178 359 -125 q 317 -308 359 -248 q 196 -392 275 -369 z "},"¤":{"ha":766,"x_min":50,"x_max":717,"o":"m 144 633 l 50 726 l 128 806 l 222 711 q 299 749 258 736 q 383 761 339 761 q 468 749 428 761 q 544 711 509 736 l 638 806 l 717 726 l 623 633 q 671 474 671 559 q 623 314 671 389 l 717 222 l 638 141 l 544 236 q 468 199 509 212 q 383 186 428 186 q 299 199 339 186 q 222 236 258 212 l 128 141 l 50 222 l 144 314 q 96 474 96 389 q 144 633 96 559 m 207 474 q 258 349 207 401 q 382 298 310 298 q 507 349 455 298 q 558 474 558 401 q 507 598 558 547 q 382 650 456 650 q 258 598 310 650 q 207 474 207 547 z "}}}
